<svg width="15" height="15" viewBox="0 0 15 15" fill="none" xmlns="http://www.w3.org/2000/svg">
<path d="M7.03125 5.15625C7.03125 5.03193 7.08064 4.9127 7.16854 4.82479C7.25645 4.73689 7.37568 4.6875 7.5 4.6875C7.62432 4.6875 7.74355 4.73689 7.83146 4.82479C7.91936 4.9127 7.96875 5.03193 7.96875 5.15625V7.03125H9.84375C9.96807 7.03125 10.0873 7.08064 10.1752 7.16854C10.2631 7.25645 10.3125 7.37568 10.3125 7.5C10.3125 7.62432 10.2631 7.74355 10.1752 7.83146C10.0873 7.91936 9.96807 7.96875 9.84375 7.96875H7.96875V9.84375C7.96875 9.96807 7.91936 10.0873 7.83146 10.1752C7.74355 10.2631 7.62432 10.3125 7.5 10.3125C7.37568 10.3125 7.25645 10.2631 7.16854 10.1752C7.08064 10.0873 7.03125 9.96807 7.03125 9.84375V7.96875H5.15625C5.03193 7.96875 4.9127 7.91936 4.82479 7.83146C4.73689 7.74355 4.6875 7.62432 4.6875 7.5C4.6875 7.37568 4.73689 7.25645 4.82479 7.16854C4.9127 7.08064 5.03193 7.03125 5.15625 7.03125H7.03125V5.15625ZM14.0625 7.5C14.0625 11.1244 11.1244 14.0625 7.5 14.0625C3.87563 14.0625 0.9375 11.1244 0.9375 7.5C0.9375 3.87563 3.87563 0.9375 7.5 0.9375C11.1244 0.9375 14.0625 3.87563 14.0625 7.5ZM13.125 7.5C13.125 4.39359 10.6064 1.875 7.5 1.875C4.39359 1.875 1.875 4.39359 1.875 7.5C1.875 10.6064 4.39359 13.125 7.5 13.125C10.6064 13.125 13.125 10.6064 13.125 7.5Z" fill="#00286B"/>
</svg>
