<?xml version="1.0" encoding="utf-8"?>
<!-- Generator: Adobe Illustrator 16.0.0, SVG Export Plug-In . SVG Version: 6.00 Build 0)  -->
<!DOCTYPE svg PUBLIC "-//W3C//DTD SVG 1.1//EN" "http://www.w3.org/Graphics/SVG/1.1/DTD/svg11.dtd">
<svg version="1.1" id="Layer_1" xmlns="http://www.w3.org/2000/svg" xmlns:xlink="http://www.w3.org/1999/xlink" x="0px" y="0px"
	 width="24px" height="24px" viewBox="-7 -5.5 24 24" enable-background="new -7 -5.5 24 24" xml:space="preserve">
<path d="M-0.354-1.706h10.747c0.205,0,0.399,0.082,0.544,0.227c0.144,0.146,0.226,0.343,0.226,0.548v14.838
	c0,0.069-0.02,0.138-0.054,0.196c-0.034,0.061-0.085,0.109-0.146,0.143c-0.06,0.034-0.128,0.051-0.196,0.048
	c-0.069-0.001-0.135-0.021-0.193-0.059L5.02,10.719l-5.554,3.517c-0.058,0.036-0.125,0.056-0.193,0.059
	c-0.068,0.003-0.136-0.016-0.196-0.048c-0.06-0.033-0.11-0.083-0.145-0.143c-0.035-0.059-0.053-0.127-0.053-0.196V-0.931
	c0-0.206,0.081-0.403,0.225-0.548C-0.753-1.624-0.558-1.706-0.354-1.706z M9.625-0.156H0.413v11.961L5.02,8.891l4.605,2.915V-0.156z
	"/>
</svg>
