<?xml version="1.0" encoding="utf-8"?>
<!-- Generator: Adobe Illustrator 16.0.0, SVG Export Plug-In . SVG Version: 6.00 Build 0)  -->
<!DOCTYPE svg PUBLIC "-//W3C//DTD SVG 1.1//EN" "http://www.w3.org/Graphics/SVG/1.1/DTD/svg11.dtd">
<svg version="1.1" id="Layer_1" xmlns="http://www.w3.org/2000/svg" xmlns:xlink="http://www.w3.org/1999/xlink" x="0px" y="0px"
	 width="24px" height="24px" viewBox="0 0 24 24" enable-background="new 0 0 24 24" xml:space="preserve">
<g>
	<path fill="#7D7F88" d="M10.773,1.4C11.129,1.141,11.559,1,12,1c0.44,0,0.87,0.141,1.226,0.4l8.82,6.437
		c1.161,0.846,0.563,2.682-0.873,2.686H2.825c-1.436-0.003-2.032-1.839-0.873-2.686L10.772,1.4H10.773z M13.188,6.065
		c0-0.315-0.125-0.618-0.349-0.84C12.617,5.001,12.315,4.876,12,4.876c-0.316,0-0.618,0.125-0.841,0.348
		c-0.223,0.223-0.348,0.525-0.348,0.84c0,0.315,0.125,0.617,0.348,0.84C11.382,7.128,11.684,7.253,12,7.253
		c0.315,0,0.617-0.125,0.84-0.348C13.063,6.682,13.188,6.38,13.188,6.065z"/>
	<path fill="#7D7F88" d="M11.109,17.652H8.732V11.71h2.377V17.652z"/>
	<path fill="#7D7F88" d="M15.269,17.652h-2.377V11.71h2.377V17.652z"/>
	<path fill="#7D7F88" d="M19.725,17.652h-2.674V11.71h2.674V17.652z"/>
	<path fill="#7D7F88" d="M20.021,18.841H3.978c-0.709,0-1.389,0.281-1.891,0.783c-0.502,0.501-0.783,1.182-0.783,1.891v0.594
		C1.304,22.602,1.703,23,2.195,23h19.609c0.236,0,0.463-0.094,0.63-0.261c0.167-0.168,0.262-0.394,0.262-0.631v-0.594
		c0-0.709-0.282-1.39-0.784-1.891C21.411,19.122,20.731,18.841,20.021,18.841z"/>
	<path fill="#7D7F88" d="M6.949,17.652H4.275V11.71h2.674V17.652z"/>
</g>
</svg>
