<?xml version="1.0" encoding="utf-8"?>
<!-- Generator: Adobe Illustrator 16.0.0, SVG Export Plug-In . SVG Version: 6.00 Build 0)  -->
<!DOCTYPE svg PUBLIC "-//W3C//DTD SVG 1.1//EN" "http://www.w3.org/Graphics/SVG/1.1/DTD/svg11.dtd">
<svg version="1.1" id="Layer_1" xmlns="http://www.w3.org/2000/svg" xmlns:xlink="http://www.w3.org/1999/xlink" x="0px" y="0px"
	 width="24px" height="24px" viewBox="-2.5 -2.5 24 24" enable-background="new -2.5 -2.5 24 24" xml:space="preserve">
<g>
	<path fill="#7D7F88" d="M14.777,15.834H8.444v-4.223H7.388v4.223H4.222v-4.223H3.166v4.223c0,0.279,0.111,0.548,0.309,0.746
		c0.198,0.197,0.466,0.309,0.747,0.309h10.556c0.279,0,0.549-0.111,0.746-0.309c0.199-0.198,0.309-0.467,0.309-0.746v-4.223h-1.055
		V15.834z"/>
	<path fill="#7D7F88" d="M17.834,7.004L15.68,2.697c-0.088-0.176-0.221-0.324-0.389-0.427c-0.166-0.104-0.359-0.159-0.555-0.159
		H4.264c-0.196,0-0.389,0.055-0.556,0.159C3.542,2.373,3.407,2.521,3.319,2.697L1.166,7.004c-0.074,0.147-0.111,0.31-0.111,0.475
		v1.625c0,0.247,0.085,0.485,0.243,0.675c0.233,0.267,0.52,0.48,0.842,0.626c0.322,0.145,0.672,0.22,1.026,0.219
		c0.577,0,1.137-0.199,1.583-0.565c0.446,0.366,1.006,0.566,1.583,0.566c0.577,0,1.137-0.2,1.583-0.566
		c0.446,0.366,1.006,0.566,1.583,0.566c0.579,0,1.137-0.2,1.584-0.566c0.445,0.366,1.006,0.566,1.582,0.566
		c0.578,0,1.137-0.2,1.584-0.566c0.498,0.409,1.137,0.609,1.779,0.558c0.643-0.051,1.24-0.35,1.666-0.832
		c0.16-0.189,0.248-0.428,0.25-0.675V7.479C17.945,7.314,17.906,7.151,17.834,7.004z M15.834,9.569
		c-0.227,0-0.447-0.055-0.648-0.159c-0.199-0.104-0.373-0.254-0.502-0.438L14.25,8.381l-0.428,0.591
		c-0.133,0.181-0.307,0.328-0.506,0.43c-0.201,0.102-0.422,0.154-0.646,0.154s-0.447-0.053-0.646-0.154
		c-0.201-0.102-0.375-0.249-0.508-0.43l-0.432-0.591l-0.428,0.591c-0.133,0.181-0.307,0.328-0.508,0.43
		c-0.2,0.102-0.421,0.154-0.646,0.154S9.056,9.504,8.856,9.402s-0.374-0.249-0.507-0.43L7.917,8.381L7.489,8.973
		c-0.133,0.181-0.307,0.328-0.507,0.43S6.56,9.557,6.335,9.557S5.89,9.504,5.689,9.402c-0.201-0.102-0.374-0.249-0.507-0.43
		L4.75,8.381L4.317,8.973C4.187,9.156,4.014,9.307,3.814,9.41S3.392,9.568,3.167,9.569C2.967,9.571,2.771,9.531,2.588,9.451
		S2.243,9.253,2.111,9.104V7.479l2.153-4.312h10.472l2.152,4.307v1.615c-0.131,0.15-0.295,0.271-0.477,0.354
		C16.23,9.525,16.033,9.568,15.834,9.569z"/>
</g>
</svg>
