<?xml version="1.0" encoding="utf-8"?>
<!-- Generator: Adobe Illustrator 16.0.0, SVG Export Plug-In . SVG Version: 6.00 Build 0)  -->
<!DOCTYPE svg PUBLIC "-//W3C//DTD SVG 1.1//EN" "http://www.w3.org/Graphics/SVG/1.1/DTD/svg11.dtd">
<svg version="1.1" id="Layer_1" xmlns="http://www.w3.org/2000/svg" xmlns:xlink="http://www.w3.org/1999/xlink" x="0px" y="0px"
	 width="24px" height="24px" viewBox="-2 -2 24 24" enable-background="new -2 -2 24 24" xml:space="preserve">
<path fill="#7D7F88" d="M10,13c0.795,0,1.559-0.316,2.121-0.879S13,10.795,13,10c0-0.796-0.316-1.559-0.879-2.121
	C11.559,7.316,10.795,7,10,7C9.205,7,8.441,7.316,7.879,7.879C7.316,8.441,7,9.204,7,10c0,0.795,0.316,1.559,0.879,2.121
	C8.441,12.684,9.205,13,10,13z M10.5,2.5c0-0.133-0.053-0.26-0.146-0.354S10.133,2,10,2S9.74,2.053,9.646,2.146S9.5,2.367,9.5,2.5
	v1.52C8.086,4.138,6.76,4.753,5.757,5.757C4.753,6.76,4.138,8.086,4.02,9.5H2.5c-0.133,0-0.26,0.053-0.354,0.146S2,9.867,2,10
	s0.053,0.26,0.146,0.354S2.367,10.5,2.5,10.5h1.52c0.118,1.414,0.733,2.74,1.737,3.743C6.76,15.246,8.086,15.861,9.5,15.98v1.52
	c0,0.133,0.053,0.26,0.146,0.354S9.867,18,10,18s0.26-0.053,0.354-0.146S10.5,17.633,10.5,17.5v-1.52
	c1.414-0.119,2.74-0.734,3.743-1.737s1.618-2.329,1.737-3.743h1.52c0.133,0,0.26-0.053,0.354-0.146S18,10.133,18,10
	s-0.053-0.26-0.146-0.354S17.633,9.5,17.5,9.5h-1.52c-0.119-1.414-0.734-2.74-1.737-3.743C13.24,4.753,11.914,4.138,10.5,4.02V2.5z
	 M10,15c-1.326,0-2.598-0.527-3.536-1.465C5.527,12.598,5,11.326,5,10s0.527-2.598,1.464-3.536C7.402,5.527,8.674,5,10,5
	s2.598,0.527,3.535,1.464C14.473,7.402,15,8.674,15,10s-0.527,2.598-1.465,3.535S11.326,15,10,15z"/>
</svg>
