<?xml version="1.0" encoding="utf-8"?>
<!-- Generator: Adobe Illustrator 16.0.0, SVG Export Plug-In . SVG Version: 6.00 Build 0)  -->
<!DOCTYPE svg PUBLIC "-//W3C//DTD SVG 1.1//EN" "http://www.w3.org/Graphics/SVG/1.1/DTD/svg11.dtd">
<svg version="1.1" id="Layer_1" xmlns="http://www.w3.org/2000/svg" xmlns:xlink="http://www.w3.org/1999/xlink" x="0px" y="0px"
	 width="24px" height="24px" viewBox="-1 -0.5 24 24" enable-background="new -1 -0.5 24 24" xml:space="preserve">
<path fill="#7D7F88" d="M19.066,13.896v-1.438c0-1.341-1.283-2.396-2.566-2.396s-2.566,1.055-2.566,2.396v1.438
	c-0.551,0-1.1,0.575-1.1,1.15V18.4c0,0.67,0.549,1.245,1.1,1.245h5.041c0.643,0,1.192-0.575,1.192-1.149v-3.354
	C20.167,14.471,19.617,13.896,19.066,13.896z M17.875,13.896h-2.75v-1.438c0-0.767,0.642-1.245,1.375-1.245s1.375,0.479,1.375,1.245
	V13.896z M4.583,10.063h7.334v1.916H4.583V10.063z M4.583,12.938h7.288c-0.486,0.518-0.798,1.188-0.871,1.916H4.583V12.938z
	 M11,17.729H4.583v-1.916H11V17.729z M12.834,9.104H3.667v8.624H1.833V7.188L8.25,3.354l6.417,3.833v1.38
	c-0.743,0.345-1.375,0.882-1.833,1.553V9.104z"/>
</svg>
