<?xml version="1.0" encoding="utf-8"?>
<!-- Generator: Adobe Illustrator 16.0.0, SVG Export Plug-In . SVG Version: 6.00 Build 0)  -->
<!DOCTYPE svg PUBLIC "-//W3C//DTD SVG 1.1//EN" "http://www.w3.org/Graphics/SVG/1.1/DTD/svg11.dtd">
<svg version="1.1" id="Layer_1" xmlns="http://www.w3.org/2000/svg" xmlns:xlink="http://www.w3.org/1999/xlink" x="0px" y="0px"
	 width="24px" height="24px" viewBox="-0.5 -0.5 24 24" enable-background="new -0.5 -0.5 24 24" xml:space="preserve">
<g>
	<path fill="#606163" d="M5.278,8.833h0.889v4.444h10.667V8.833h0.889v4.444h1.111c0.06,0,0.116,0.023,0.158,0.065
		c0.041,0.041,0.064,0.099,0.064,0.157v0.443c0,0.061-0.023,0.116-0.064,0.158c-0.042,0.042-0.099,0.065-0.158,0.065H4.167
		c-0.059,0-0.115-0.023-0.157-0.065c-0.042-0.042-0.065-0.098-0.065-0.158V13.5c0-0.059,0.023-0.116,0.065-0.157
		c0.042-0.042,0.099-0.065,0.157-0.065h1.111V8.833z M5.278,15.943v2.667h12.444v-2.667H5.278z M4.833,15.057
		c-0.118,0-0.231,0.046-0.314,0.129s-0.13,0.196-0.13,0.314v3.557c0,0.117,0.047,0.229,0.13,0.313
		C4.603,19.453,4.715,19.5,4.833,19.5h13.333c0.117,0,0.23-0.047,0.314-0.131c0.083-0.083,0.129-0.195,0.129-0.313V15.5
		c0-0.118-0.046-0.231-0.129-0.314c-0.084-0.083-0.197-0.129-0.314-0.129H4.833z"/>
	<path fill="#606163" d="M5.362,4.389L4.409,7.017c-0.013,0.036-0.02,0.073-0.02,0.11v1.062c0,0.359,0.288,0.645,0.635,0.645
		c0.347,0,0.635-0.285,0.635-0.644c0-0.118,0.047-0.231,0.13-0.314c0.083-0.083,0.196-0.13,0.314-0.13s0.231,0.046,0.314,0.13
		c0.083,0.083,0.13,0.197,0.13,0.314c0,0.359,0.288,0.644,0.635,0.644c0.347,0,0.635-0.285,0.635-0.644
		c0-0.118,0.047-0.231,0.13-0.314c0.083-0.083,0.197-0.13,0.314-0.13s0.231,0.046,0.314,0.13c0.083,0.083,0.13,0.197,0.13,0.314
		c0,0.359,0.288,0.644,0.635,0.644c0.347,0,0.635-0.285,0.635-0.644c0-0.118,0.046-0.231,0.13-0.314s0.197-0.13,0.314-0.13
		c0.118,0,0.231,0.046,0.314,0.13c0.083,0.083,0.131,0.196,0.131,0.314c0,0.359,0.288,0.644,0.635,0.644s0.635-0.285,0.635-0.644
		c0-0.118,0.047-0.231,0.131-0.314c0.083-0.083,0.196-0.13,0.314-0.13c0.117,0,0.23,0.046,0.313,0.13
		c0.084,0.083,0.13,0.197,0.13,0.314c0,0.359,0.288,0.644,0.635,0.644c0.348,0,0.636-0.285,0.636-0.644
		c0-0.118,0.047-0.231,0.13-0.314s0.196-0.13,0.314-0.13s0.23,0.046,0.314,0.13c0.083,0.083,0.13,0.196,0.13,0.314
		c0,0.359,0.288,0.644,0.635,0.644c0.348,0,0.636-0.285,0.636-0.644c0-0.118,0.046-0.231,0.129-0.314
		c0.085-0.083,0.197-0.13,0.314-0.13c0.118,0,0.231,0.046,0.314,0.13s0.131,0.197,0.131,0.314c0,0.359,0.287,0.644,0.635,0.644
		c0.347,0,0.634-0.285,0.634-0.644V7.127c0-0.038-0.005-0.075-0.019-0.111l-0.954-2.627H5.362L5.362,4.389z M17.623,4.346
		l0.063-0.023L17.623,4.346z M16.896,9.272c-0.141,0.143-0.309,0.256-0.494,0.333c-0.185,0.078-0.384,0.117-0.585,0.117
		s-0.399-0.039-0.586-0.117c-0.185-0.077-0.353-0.191-0.493-0.333c-0.141,0.143-0.309,0.256-0.494,0.333
		c-0.187,0.078-0.385,0.117-0.586,0.117c-0.2,0-0.399-0.039-0.584-0.117c-0.186-0.077-0.354-0.191-0.494-0.333
		c-0.142,0.143-0.311,0.256-0.495,0.333C11.9,9.683,11.701,9.722,11.5,9.722s-0.4-0.039-0.585-0.117
		c-0.186-0.077-0.354-0.191-0.495-0.333c-0.141,0.143-0.309,0.256-0.494,0.333C9.741,9.683,9.542,9.722,9.341,9.722
		c-0.423,0-0.805-0.173-1.08-0.45C8.121,9.415,7.953,9.528,7.768,9.605C7.583,9.683,7.384,9.722,7.183,9.722
		c-0.201,0-0.399-0.039-0.585-0.117C6.412,9.528,6.244,9.415,6.103,9.272C5.962,9.415,5.794,9.528,5.609,9.605
		C5.424,9.683,5.225,9.722,5.024,9.722C4.179,9.722,3.5,9.033,3.5,8.189V7.127c0-0.141,0.024-0.281,0.072-0.414l0.969-2.671
		c0.058-0.159,0.163-0.296,0.301-0.394C4.98,3.552,5.146,3.5,5.315,3.5h12.372c0.169,0,0.333,0.053,0.471,0.149
		c0.14,0.098,0.244,0.235,0.301,0.394l0.97,2.671C19.477,6.846,19.5,6.986,19.5,7.127v1.062c0,0.843-0.68,1.533-1.523,1.533
		c-0.201,0-0.4-0.039-0.585-0.117C17.206,9.528,17.038,9.415,16.896,9.272z"/>
	<path fill="#606163" d="M7.056,12.167c0-0.06,0.023-0.116,0.065-0.158c0.042-0.042,0.098-0.064,0.157-0.064h1.333
		c0.059,0,0.116,0.023,0.157,0.064c0.042,0.042,0.065,0.099,0.065,0.158v0.889c0,0.059-0.023,0.114-0.065,0.156
		s-0.098,0.065-0.157,0.065H7.278c-0.059,0-0.116-0.023-0.157-0.065c-0.042-0.042-0.065-0.098-0.065-0.156V12.167z"/>
	<path fill="#606163" d="M7.944,12.611c0-0.059,0.023-0.115,0.065-0.156c0.042-0.042,0.099-0.065,0.157-0.065H9.5
		c0.059,0,0.116,0.023,0.157,0.065c0.042,0.041,0.064,0.098,0.064,0.156v0.445c0,0.058-0.023,0.114-0.064,0.156
		S9.559,13.278,9.5,13.278H8.167c-0.059,0-0.115-0.023-0.157-0.065c-0.042-0.042-0.065-0.099-0.065-0.156V12.611z"/>
	<path fill="#606163" d="M11.5,12.61c0,0.178-0.07,0.347-0.195,0.472s-0.295,0.195-0.471,0.195c-0.177,0-0.347-0.07-0.472-0.195
		s-0.195-0.294-0.195-0.472c0-0.177,0.07-0.346,0.195-0.471s0.295-0.195,0.472-0.195c0.176,0,0.346,0.07,0.471,0.195
		S11.5,12.434,11.5,12.61z"/>
</g>
</svg>
