<?xml version="1.0" encoding="utf-8"?>
<!-- Generator: Adobe Illustrator 16.0.0, SVG Export Plug-In . SVG Version: 6.00 Build 0)  -->
<!DOCTYPE svg PUBLIC "-//W3C//DTD SVG 1.1//EN" "http://www.w3.org/Graphics/SVG/1.1/DTD/svg11.dtd">
<svg version="1.1" id="Layer_1" xmlns="http://www.w3.org/2000/svg" xmlns:xlink="http://www.w3.org/1999/xlink" x="0px" y="0px"
	 width="24px" height="24px" viewBox="-3.5 -3.5 24 24" enable-background="new -3.5 -3.5 24 24" xml:space="preserve">
<g>
	<defs>
		<rect id="SVGID_1_" width="17" height="17"/>
	</defs>
	<clipPath id="SVGID_2_">
		<use xlink:href="#SVGID_1_"  overflow="visible"/>
	</clipPath>
	<g clip-path="url(#SVGID_2_)">
		<path fill="#7D7F88" d="M15.996,0H4.197C4.06,0,3.948,0.111,3.948,0.249S4.06,0.498,4.197,0.498h11.799
			c0.102,0,0.186,0.083,0.186,0.186V4.79h-0.564V1.312c0-0.138-0.111-0.249-0.249-0.249H1.632c-0.138,0-0.249,0.111-0.249,0.249
			v10.96c0,0.137,0.111,0.248,0.249,0.248h1.761v0.564H1.004c-0.103,0-0.186-0.083-0.186-0.186V0.684
			c0-0.103,0.083-0.186,0.186-0.186h2.197c0.138,0,0.249-0.111,0.249-0.249S3.339,0,3.201,0H1.004C0.627,0,0.32,0.307,0.32,0.684
			v12.214c0,0.377,0.307,0.684,0.684,0.684h8.947c0.102,0,0.186,0.084,0.186,0.187v2.548c0,0.377,0.307,0.684,0.684,0.684h1.939
			c0.139,0,0.25-0.111,0.25-0.249s-0.111-0.249-0.25-0.249H10.82c-0.102,0-0.186-0.084-0.186-0.186v-2.548
			c0-0.378-0.307-0.685-0.684-0.685H7.353V12.52h2.599c0.688,0,1.248,0.561,1.248,1.249v1.92c0,0.138,0.111,0.249,0.249,0.249h3.92
			c0.138,0,0.249-0.111,0.249-0.249V8.749h0.564v7.567c0,0.102-0.084,0.186-0.186,0.186h-2.572c-0.137,0-0.248,0.111-0.248,0.249
			S13.287,17,13.424,17h2.572c0.377,0,0.684-0.307,0.684-0.684V0.684C16.68,0.307,16.373,0,15.996,0L15.996,0z M15.119,13.977
			h-1.023c-0.119,0-0.217-0.098-0.217-0.217v-2.836c0-0.118,0.098-0.215,0.217-0.215h1.023V13.977z M13.993,1.561v0.281
			c0,0.241-0.196,0.436-0.437,0.436h-0.99c-0.24,0-0.436-0.195-0.436-0.436V1.561H13.993z M10.496,1.627v1.298
			c0,0.276-0.225,0.501-0.501,0.501S9.494,3.201,9.494,2.925V1.627H10.496z M3.346,2.666h2.574V5.69H3.346V2.666z M5.919,1.561
			v0.607H3.346V1.561H5.919z M6.011,9.206v1.577H2.986V9.206H6.011z M2.488,10.783H1.881V9.206h0.607V10.783z M6.854,13.084H3.891
			V12.52h2.963V13.084z M11.697,15.439v-1.671c0-0.963-0.783-1.747-1.746-1.747H9.249V8.456h3.053v0.085
			c0,0.137,0.111,0.249,0.249,0.249c0.137,0,0.249-0.112,0.249-0.249V7.835c0-0.138-0.112-0.249-0.249-0.249
			c-0.138,0-0.249,0.111-0.249,0.249v0.123H9c-0.137,0-0.249,0.111-0.249,0.249v3.815h-6.87v-0.74h4.183
			c0.245,0,0.445-0.199,0.445-0.444V9.152c0-0.245-0.2-0.444-0.445-0.444H1.881V8.089h4.562v0.061c0,0.138,0.111,0.249,0.249,0.249
			c0.137,0,0.249-0.111,0.249-0.249V7.52c0-0.138-0.112-0.249-0.249-0.249c-0.138,0-0.249,0.111-0.249,0.249v0.071H1.881v-6.03
			h0.967v4.183c0,0.245,0.2,0.445,0.445,0.445h2.681c0.245,0,0.444-0.2,0.444-0.445V1.561H7.75v4.13H7.689
			c-0.138,0-0.249,0.111-0.249,0.249c0,0.137,0.111,0.249,0.249,0.249h0.629c0.138,0,0.249-0.112,0.249-0.249
			c0-0.138-0.111-0.249-0.249-0.249H8.248v-4.13h0.747v1.364c0,0.551,0.448,1,1,1s0.999-0.449,0.999-1V1.561h0.639v0.281
			c0,0.515,0.419,0.934,0.935,0.934h0.989c0.516,0,0.935-0.419,0.935-0.934V1.561h0.628v8.65h-1.023
			c-0.395,0-0.714,0.32-0.714,0.713v2.836c0,0.395,0.319,0.714,0.714,0.714h1.023v0.966H11.697z M15.617,8.251V5.288h0.564v2.963
			H15.617z"/>
		<path fill="#7D7F88" d="M14.037,5.238c0-0.49-0.398-0.888-0.888-0.888s-0.888,0.398-0.888,0.888s0.398,0.888,0.888,0.888
			S14.037,5.728,14.037,5.238z M13.149,5.627c-0.216,0-0.39-0.175-0.39-0.39c0-0.215,0.174-0.39,0.39-0.39
			c0.215,0,0.39,0.175,0.39,0.39C13.539,5.453,13.364,5.627,13.149,5.627z"/>
	</g>
</g>
</svg>
