<?xml version="1.0" encoding="utf-8"?>
<!-- Generator: Adobe Illustrator 16.0.0, SVG Export Plug-In . SVG Version: 6.00 Build 0)  -->
<!DOCTYPE svg PUBLIC "-//W3C//DTD SVG 1.1//EN" "http://www.w3.org/Graphics/SVG/1.1/DTD/svg11.dtd">
<svg version="1.1" id="Layer_1" xmlns="http://www.w3.org/2000/svg" xmlns:xlink="http://www.w3.org/1999/xlink" x="0px" y="0px"
	 width="24px" height="24px" viewBox="-3 -3 24 24" enable-background="new -3 -3 24 24" xml:space="preserve">
<path fill="#7D7F88" d="M15.469,6.337c-0.787-3.465-3.811-5.025-6.465-5.025c0,0,0,0-0.008,0c-2.647,0-5.677,1.553-6.465,5.018
	c-0.877,3.87,1.493,7.147,3.638,9.21c0.795,0.765,1.815,1.147,2.835,1.147c1.02,0,2.04-0.383,2.827-1.147
	C13.977,13.478,16.346,10.207,15.469,6.337z M9.004,10.095c-1.305,0-2.363-1.057-2.363-2.362c0-1.305,1.058-2.362,2.363-2.362
	c1.305,0,2.362,1.058,2.362,2.362C11.366,9.038,10.309,10.095,9.004,10.095z"/>
</svg>
