<?xml version="1.0" encoding="utf-8"?>
<!-- Generator: Adobe Illustrator 16.0.0, SVG Export Plug-In . SVG Version: 6.00 Build 0)  -->
<!DOCTYPE svg PUBLIC "-//W3C//DTD SVG 1.1//EN" "http://www.w3.org/Graphics/SVG/1.1/DTD/svg11.dtd">
<svg version="1.1" id="Layer_1" xmlns="http://www.w3.org/2000/svg" xmlns:xlink="http://www.w3.org/1999/xlink" x="0px" y="0px"
	 width="34px" height="34px" viewBox="0 0 34 34" enable-background="new 0 0 34 34" xml:space="preserve">
<g>
	<defs>
		<rect id="SVGID_1_" x="5" y="5" width="24" height="24"/>
	</defs>
	<clipPath id="SVGID_2_">
		<use xlink:href="#SVGID_1_"  overflow="visible"/>
	</clipPath>
	<g clip-path="url(#SVGID_2_)">
		<path fill="#00E676" d="M11.343,25.555l0.393,0.194c1.635,0.97,3.466,1.422,5.297,1.422c5.755,0,10.463-4.654,10.463-10.342
			c0-2.715-1.112-5.365-3.073-7.304c-1.962-1.939-4.579-3.039-7.39-3.039c-5.755,0-10.464,4.654-10.398,10.407
			c0,1.939,0.588,3.814,1.57,5.43l0.261,0.388l-1.046,3.813L11.343,25.555z"/>
		<path fill="#FFFFFF" d="M25.534,8.49C23.312,6.228,20.237,5,17.098,5c-6.67,0-12.032,5.365-11.967,11.893
			c0,2.069,0.588,4.073,1.57,5.881L5,28.915l6.343-1.615c1.766,0.97,3.728,1.423,5.689,1.423C23.638,28.723,29,23.356,29,16.829
			C29,13.662,27.758,10.688,25.534,8.49L25.534,8.49z M17.098,26.719c-1.766,0-3.531-0.453-5.036-1.356l-0.392-0.195l-3.793,0.97
			l0.98-3.684l-0.261-0.388c-2.878-4.589-1.504-10.667,3.204-13.511c4.708-2.844,10.792-1.486,13.667,3.168
			c2.878,4.654,1.505,10.665-3.204,13.509C20.761,26.202,18.93,26.719,17.098,26.719L17.098,26.719z M22.853,19.544l-0.719-0.322
			c0,0-1.047-0.453-1.7-0.776c-0.065,0-0.132-0.065-0.196-0.065c-0.195,0-0.327,0.065-0.457,0.129c0,0-0.065,0.065-0.982,1.1
			c-0.064,0.13-0.196,0.193-0.326,0.193h-0.065c-0.065,0-0.195-0.063-0.262-0.129l-0.327-0.129
			c-0.719-0.322-1.373-0.712-1.896-1.229c-0.131-0.129-0.327-0.258-0.458-0.387c-0.458-0.453-0.916-0.97-1.243-1.552l-0.065-0.129
			c-0.066-0.065-0.066-0.13-0.131-0.259c0-0.129,0-0.258,0.065-0.323c0,0,0.262-0.323,0.458-0.517
			c0.131-0.129,0.197-0.324,0.328-0.453c0.13-0.194,0.196-0.452,0.13-0.646c-0.065-0.323-0.85-2.068-1.046-2.456
			c-0.131-0.194-0.262-0.259-0.458-0.323h-0.719c-0.132,0-0.262,0.064-0.393,0.064l-0.066,0.064
			c-0.131,0.065-0.262,0.194-0.392,0.259c-0.131,0.129-0.196,0.258-0.327,0.387c-0.458,0.582-0.72,1.293-0.72,2.004
			c0,0.517,0.131,1.034,0.328,1.487l0.065,0.194c0.589,1.228,1.373,2.327,2.42,3.296l0.262,0.259
			c0.196,0.194,0.392,0.323,0.523,0.517c1.373,1.164,2.943,2.004,4.708,2.456c0.196,0.065,0.458,0.065,0.654,0.13h0.654
			c0.326,0,0.719-0.13,0.98-0.259C21.677,22,21.808,22,21.938,21.871l0.13-0.13c0.132-0.129,0.262-0.193,0.394-0.322
			c0.132-0.13,0.262-0.26,0.327-0.389c0.131-0.258,0.195-0.581,0.262-0.905v-0.452C23.05,19.673,22.983,19.608,22.853,19.544z"/>
	</g>
</g>
</svg>
