<?xml version="1.0" encoding="utf-8"?>
<!-- Generator: Adobe Illustrator 16.0.0, SVG Export Plug-In . SVG Version: 6.00 Build 0)  -->
<!DOCTYPE svg PUBLIC "-//W3C//DTD SVG 1.1//EN" "http://www.w3.org/Graphics/SVG/1.1/DTD/svg11.dtd">
<svg version="1.1" id="Layer_1" xmlns="http://www.w3.org/2000/svg" xmlns:xlink="http://www.w3.org/1999/xlink" x="0px" y="0px"
	 width="24px" height="24px" viewBox="0 0 24 24" enable-background="new 0 0 24 24" xml:space="preserve">
<path fill="#7D7F88" d="M22.5,10.125h-1.013l-2.604-5.859C18.766,4,18.573,3.775,18.33,3.618c-0.244-0.158-0.527-0.243-0.817-0.243
	H6.487c-0.29,0-0.574,0.084-0.817,0.243C5.427,3.775,5.235,4.001,5.117,4.266l-2.604,5.859H1.5c-0.199,0-0.39,0.079-0.53,0.22
	s-0.22,0.332-0.22,0.53s0.079,0.39,0.22,0.53s0.332,0.22,0.53,0.22h0.75v7.5c0,0.397,0.159,0.779,0.44,1.061s0.663,0.439,1.06,0.439
	H6c0.397,0,0.779-0.158,1.06-0.439S7.5,19.522,7.5,19.125v-1.5h9v1.5c0,0.397,0.158,0.779,0.439,1.061s0.663,0.439,1.061,0.439h2.25
	c0.397,0,0.779-0.158,1.061-0.439s0.439-0.663,0.439-1.061v-7.5h0.75c0.199,0,0.39-0.079,0.53-0.22s0.22-0.332,0.22-0.53
	s-0.079-0.39-0.22-0.53S22.699,10.125,22.5,10.125z M7.5,14.625H6c-0.199,0-0.39-0.079-0.53-0.22s-0.22-0.331-0.22-0.53
	s0.079-0.39,0.22-0.53s0.332-0.22,0.53-0.22h1.5c0.199,0,0.39,0.079,0.53,0.22s0.22,0.331,0.22,0.53s-0.079,0.39-0.22,0.53
	S7.699,14.625,7.5,14.625z M16.5,14.625c-0.199,0-0.39-0.079-0.53-0.22s-0.22-0.331-0.22-0.53s0.079-0.39,0.22-0.53
	s0.331-0.22,0.53-0.22H18c0.199,0,0.39,0.079,0.53,0.22s0.22,0.331,0.22,0.53s-0.079,0.39-0.22,0.53s-0.331,0.22-0.53,0.22H16.5z"/>
</svg>
