<?xml version="1.0" encoding="utf-8"?>
<!-- Generator: Adobe Illustrator 16.0.0, SVG Export Plug-In . SVG Version: 6.00 Build 0)  -->
<!DOCTYPE svg PUBLIC "-//W3C//DTD SVG 1.1//EN" "http://www.w3.org/Graphics/SVG/1.1/DTD/svg11.dtd">
<svg version="1.1" id="Layer_1" xmlns="http://www.w3.org/2000/svg" xmlns:xlink="http://www.w3.org/1999/xlink" x="0px" y="0px"
	 width="34px" height="34px" viewBox="0 0 34 34" enable-background="new 0 0 34 34" xml:space="preserve">
<path fill="#FFFFFF" d="M24.421,19.944l-3.856-1.726c-0.201-0.091-0.42-0.126-0.64-0.106c-0.218,0.021-0.428,0.101-0.608,0.228
	l-2.063,1.435c-1.26-0.64-2.28-1.699-2.898-3.013l0,0l1.37-2.185c0.119-0.189,0.191-0.407,0.21-0.633s-0.016-0.454-0.102-0.662
	l-1.654-4.028c-0.113-0.274-0.307-0.502-0.554-0.65s-0.534-0.209-0.817-0.174c-1.112,0.15-2.134,0.716-2.875,1.595
	c-0.742,0.879-1.151,2.009-1.152,3.18c0,6.826,5.318,12.375,11.856,12.375c1.12-0.001,1.522-1.806,2.363-2.58
	c0.842-0.772,2.066-0.463,2.21-1.624c0.033-0.296-0.024-0.595-0.167-0.854C24.9,20.265,24.684,20.063,24.421,19.944z"/>
</svg>
