<?xml version="1.0" encoding="utf-8"?>
<!-- Generator: Adobe Illustrator 16.0.0, SVG Export Plug-In . SVG Version: 6.00 Build 0)  -->
<!DOCTYPE svg PUBLIC "-//W3C//DTD SVG 1.1//EN" "http://www.w3.org/Graphics/SVG/1.1/DTD/svg11.dtd">
<svg version="1.1" id="Layer_1" xmlns="http://www.w3.org/2000/svg" xmlns:xlink="http://www.w3.org/1999/xlink" x="0px" y="0px"
	 width="283px" height="37.216px" viewBox="0 0 283 37.216" enable-background="new 0 0 283 37.216" xml:space="preserve">
<path fill="#EDEDED" d="M2.5,6.5h278c1.381,0,2.5,1.119,2.5,2.5l0,0c0,1.381-1.119,2.5-2.5,2.5H2.5C1.119,11.5,0,10.381,0,9l0,0
	C0,7.619,1.119,6.5,2.5,6.5z"/>
<path fill="#0957CB" d="M2.5,6.5h136c1.381,0,2.5,1.119,2.5,2.5l0,0c0,1.381-1.119,2.5-2.5,2.5H2.5C1.119,11.5,0,10.381,0,9l0,0
	C0,7.619,1.119,6.5,2.5,6.5z"/>
<g>
	<g>
		<circle fill="#0957CB" cx="141.5" cy="9" r="9"/>
	</g>
	<g>
		<circle fill="#FFFFFF" cx="141.5" cy="9" r="5"/>
	</g>
</g>
<path fill="#4D515B" d="M0,32.68v-12.6h1.512v11.394H7.38v1.206H0z M13.048,32.896c-0.84,0-1.596-0.192-2.268-0.575
	c-0.672-0.385-1.206-0.925-1.602-1.621c-0.384-0.707-0.576-1.535-0.576-2.483S8.8,26.445,9.196,25.75
	c0.396-0.709,0.93-1.254,1.602-1.639c0.684-0.384,1.446-0.576,2.286-0.576c0.84,0,1.596,0.192,2.268,0.576
	c0.672,0.385,1.201,0.93,1.583,1.639c0.396,0.695,0.595,1.518,0.595,2.466s-0.198,1.776-0.595,2.483
	C16.54,31.396,16,31.936,15.316,32.32C14.644,32.703,13.888,32.896,13.048,32.896z M13.048,31.6c0.516,0,0.996-0.126,1.44-0.378
	s0.804-0.63,1.08-1.134s0.414-1.128,0.414-1.872s-0.138-1.368-0.414-1.872c-0.264-0.504-0.618-0.882-1.062-1.134
	c-0.444-0.253-0.918-0.378-1.422-0.378c-0.516,0-0.996,0.125-1.44,0.378c-0.444,0.252-0.804,0.63-1.08,1.134
	c-0.276,0.504-0.414,1.128-0.414,1.872s0.138,1.368,0.414,1.872c0.276,0.504,0.63,0.882,1.062,1.134
	C12.07,31.474,12.544,31.6,13.048,31.6z M21.099,32.68l-2.61-8.928H20l1.891,7.002l2.088-7.002h1.71l2.106,7.002l1.871-7.002h1.531
	l-2.61,8.928h-1.548l-2.196-7.361l-2.196,7.361H21.099z"/>
<path fill="#4D515B" d="M248.625,33.04v-12.6h1.513v5.562h6.533V20.44h1.512v12.6h-1.512v-5.796h-6.533v5.796H248.625z
	 M261.67,22.132c-0.3,0-0.552-0.096-0.757-0.287c-0.191-0.205-0.287-0.457-0.287-0.757c0-0.288,0.096-0.528,0.287-0.72
	c0.205-0.192,0.457-0.288,0.757-0.288c0.288,0,0.534,0.096,0.737,0.288c0.205,0.191,0.307,0.432,0.307,0.72
	c0,0.3-0.102,0.552-0.307,0.757C262.204,22.036,261.958,22.132,261.67,22.132z M260.913,33.04v-8.928h1.513v8.928H260.913z
	 M268.586,30.231c-0.504,0-0.965-0.065-1.386-0.197l-0.899,0.846c0.131,0.096,0.293,0.18,0.485,0.252
	c0.204,0.061,0.492,0.12,0.864,0.18c0.372,0.049,0.895,0.103,1.566,0.162c1.199,0.084,2.058,0.36,2.574,0.828
	c0.516,0.469,0.773,1.08,0.773,1.836c0,0.517-0.145,1.008-0.432,1.477c-0.276,0.468-0.709,0.852-1.297,1.152
	c-0.576,0.299-1.319,0.449-2.231,0.449c-0.804,0-1.519-0.107-2.142-0.324c-0.624-0.203-1.11-0.521-1.458-0.953
	c-0.349-0.42-0.522-0.955-0.522-1.603c0-0.336,0.09-0.702,0.271-1.098c0.18-0.384,0.516-0.75,1.008-1.099
	c-0.264-0.107-0.492-0.222-0.685-0.342c-0.18-0.132-0.348-0.275-0.504-0.432v-0.414l1.53-1.512
	c-0.708-0.601-1.063-1.393-1.063-2.377c0-0.588,0.139-1.121,0.414-1.602c0.276-0.48,0.678-0.857,1.206-1.134
	c0.528-0.288,1.17-0.433,1.926-0.433c0.517,0,0.984,0.072,1.404,0.217h3.294v1.134l-1.674,0.071
	c0.349,0.505,0.522,1.087,0.522,1.746c0,0.588-0.145,1.123-0.433,1.603c-0.276,0.479-0.678,0.864-1.206,1.151
	C269.979,30.095,269.342,30.231,268.586,30.231z M268.586,28.99c0.637,0,1.141-0.162,1.512-0.486
	c0.385-0.336,0.576-0.815,0.576-1.44c0-0.611-0.191-1.08-0.576-1.403c-0.371-0.336-0.875-0.504-1.512-0.504
	c-0.647,0-1.164,0.168-1.547,0.504c-0.373,0.323-0.559,0.792-0.559,1.403c0,0.625,0.186,1.104,0.559,1.44
	C267.422,28.828,267.938,28.99,268.586,28.99z M265.958,34.192c0,0.6,0.252,1.043,0.757,1.332c0.504,0.3,1.133,0.449,1.89,0.449
	c0.743,0,1.338-0.162,1.782-0.485c0.455-0.324,0.684-0.757,0.684-1.296c0-0.385-0.156-0.721-0.468-1.008
	c-0.312-0.276-0.888-0.438-1.728-0.486c-0.66-0.049-1.23-0.108-1.711-0.18c-0.492,0.264-0.816,0.545-0.972,0.846
	C266.036,33.676,265.958,33.952,265.958,34.192z M274.99,33.04V20.08h1.512v5.562c0.301-0.552,0.727-0.978,1.278-1.277
	c0.552-0.313,1.151-0.469,1.8-0.469c1.032,0,1.859,0.324,2.484,0.973c0.623,0.636,0.936,1.62,0.936,2.952v5.22h-1.494v-5.059
	c0-1.859-0.75-2.789-2.25-2.789c-0.779,0-1.434,0.281-1.962,0.846c-0.528,0.552-0.792,1.344-0.792,2.376v4.626H274.99z"/>
<path fill="#4D515B" d="M108.934,33.04v-12.6h1.764l4.536,8.783l4.5-8.783h1.782v12.6h-1.512v-9.9l-4.212,8.101h-1.134l-4.212-8.082
	v9.882H108.934z M128.098,33.256c-0.852,0-1.608-0.192-2.268-0.575c-0.66-0.396-1.182-0.942-1.566-1.639
	c-0.372-0.695-0.558-1.518-0.558-2.466c0-0.937,0.186-1.752,0.558-2.448c0.372-0.708,0.888-1.254,1.548-1.638
	c0.672-0.396,1.446-0.595,2.322-0.595c0.864,0,1.608,0.199,2.232,0.595c0.636,0.384,1.122,0.894,1.458,1.53
	c0.336,0.636,0.504,1.319,0.504,2.052c0,0.132-0.006,0.264-0.018,0.396c0,0.133,0,0.282,0,0.45h-7.11
	c0.036,0.685,0.192,1.254,0.468,1.71c0.288,0.444,0.642,0.78,1.062,1.008c0.432,0.229,0.888,0.342,1.368,0.342
	c0.624,0,1.146-0.144,1.566-0.432c0.42-0.288,0.726-0.678,0.918-1.17h1.494c-0.24,0.828-0.702,1.518-1.386,2.07
	C130.018,32.985,129.154,33.256,128.098,33.256z M128.098,25.174c-0.72,0-1.362,0.222-1.926,0.666
	c-0.552,0.433-0.87,1.068-0.954,1.908h5.616c-0.036-0.804-0.312-1.435-0.828-1.89C129.49,25.401,128.854,25.174,128.098,25.174z
	 M138.382,33.256c-0.888,0-1.668-0.204-2.34-0.612c-0.66-0.408-1.176-0.965-1.548-1.674c-0.36-0.707-0.54-1.512-0.54-2.412
	c0-0.899,0.186-1.697,0.558-2.394c0.372-0.708,0.888-1.26,1.548-1.656c0.66-0.407,1.44-0.612,2.34-0.612
	c0.732,0,1.38,0.15,1.944,0.451c0.564,0.299,1.002,0.719,1.314,1.26V20.08h1.512v12.96h-1.368l-0.144-1.477
	c-0.288,0.433-0.702,0.822-1.242,1.17C139.876,33.082,139.198,33.256,138.382,33.256z M138.544,31.942
	c0.6,0,1.128-0.139,1.584-0.414c0.468-0.288,0.828-0.684,1.08-1.188c0.264-0.504,0.396-1.092,0.396-1.764s-0.132-1.261-0.396-1.765
	c-0.252-0.504-0.612-0.894-1.08-1.17c-0.456-0.287-0.984-0.432-1.584-0.432c-0.588,0-1.116,0.145-1.584,0.432
	c-0.456,0.276-0.816,0.666-1.08,1.17c-0.252,0.504-0.378,1.093-0.378,1.765s0.126,1.26,0.378,1.764
	c0.264,0.505,0.624,0.9,1.08,1.188C137.428,31.804,137.956,31.942,138.544,31.942z M146.553,22.132
	c-0.301,0-0.553-0.096-0.756-0.287c-0.192-0.205-0.288-0.457-0.288-0.757c0-0.288,0.096-0.528,0.288-0.72
	c0.203-0.192,0.455-0.288,0.756-0.288c0.287,0,0.533,0.096,0.738,0.288c0.203,0.191,0.306,0.432,0.306,0.72
	c0,0.3-0.103,0.552-0.306,0.757C147.086,22.036,146.84,22.132,146.553,22.132z M145.797,33.04v-8.928h1.512v8.928H145.797z
	 M153.199,33.256c-1.057,0-1.896-0.317-2.52-0.954c-0.625-0.647-0.937-1.638-0.937-2.97v-5.22h1.513v5.058
	c0,1.86,0.762,2.79,2.285,2.79c0.78,0,1.422-0.275,1.926-0.828c0.517-0.564,0.774-1.361,0.774-2.394v-4.626h1.513v8.928h-1.369
	l-0.107-1.602c-0.275,0.563-0.689,1.008-1.242,1.332C154.495,33.095,153.883,33.256,153.199,33.256z M160.242,33.04v-8.928h1.367
	l0.108,1.296c0.288-0.479,0.673-0.853,1.152-1.116s1.021-0.396,1.62-0.396c0.707,0,1.314,0.145,1.818,0.433
	c0.516,0.288,0.911,0.726,1.188,1.313c0.313-0.539,0.738-0.966,1.277-1.277c0.553-0.313,1.146-0.469,1.783-0.469
	c1.067,0,1.92,0.324,2.555,0.973c0.637,0.636,0.955,1.62,0.955,2.952v5.22h-1.494v-5.059c0-0.924-0.187-1.619-0.559-2.088
	c-0.371-0.468-0.906-0.701-1.602-0.701c-0.721,0-1.32,0.281-1.801,0.846c-0.467,0.552-0.701,1.344-0.701,2.376v4.626h-1.512v-5.059
	c0-0.924-0.187-1.619-0.559-2.088c-0.372-0.468-0.906-0.701-1.602-0.701c-0.709,0-1.303,0.281-1.782,0.846
	c-0.468,0.552-0.702,1.344-0.702,2.376v4.626H160.242z"/>
</svg>
