<?xml version="1.0" encoding="utf-8"?>
<!-- Generator: Adobe Illustrator 16.0.0, SVG Export Plug-In . SVG Version: 6.00 Build 0)  -->
<!DOCTYPE svg PUBLIC "-//W3C//DTD SVG 1.1//EN" "http://www.w3.org/Graphics/SVG/1.1/DTD/svg11.dtd">
<svg version="1.1" id="Layer_1" xmlns="http://www.w3.org/2000/svg" xmlns:xlink="http://www.w3.org/1999/xlink" x="0px" y="0px"
	 width="283px" height="34.216px" viewBox="0 0 283 34.216" enable-background="new 0 0 283 34.216" xml:space="preserve">
<path fill="#EDEDED" d="M2.5,6.5h278c1.381,0,2.5,1.119,2.5,2.5l0,0c0,1.381-1.119,2.5-2.5,2.5H2.5C1.119,11.5,0,10.381,0,9l0,0
	C0,7.619,1.119,6.5,2.5,6.5z"/>
<path fill="#0957CB" d="M2.5,6.5h136c1.381,0,2.5,1.119,2.5,2.5l0,0c0,1.381-1.119,2.5-2.5,2.5H2.5C1.119,11.5,0,10.381,0,9l0,0
	C0,7.619,1.119,6.5,2.5,6.5z"/>
<g>
	<g>
		<circle fill="#0957CB" cx="141.5" cy="9" r="9"/>
	</g>
	<g>
		<circle fill="#FFFFFF" cx="141.5" cy="9" r="5"/>
	</g>
</g>
<path fill="#4D515B" d="M134.924,34.216c-0.864,0-1.614-0.155-2.25-0.468s-1.146-0.738-1.53-1.278
	c-0.372-0.552-0.6-1.176-0.684-1.872h1.476c0.144,0.696,0.479,1.26,1.009,1.692c0.527,0.42,1.193,0.63,1.997,0.63
	c0.601,0,1.116-0.138,1.548-0.414c0.432-0.288,0.762-0.672,0.99-1.152c0.24-0.479,0.36-1.014,0.36-1.602
	c0-0.936-0.265-1.691-0.792-2.268c-0.528-0.576-1.213-0.864-2.053-0.864c-0.695,0-1.289,0.155-1.781,0.468s-0.852,0.721-1.08,1.225
	h-1.439l1.079-6.912h6.606v1.313h-5.436l-0.738,3.834c0.287-0.348,0.684-0.636,1.188-0.864c0.516-0.228,1.104-0.342,1.764-0.342
	c0.828,0,1.549,0.192,2.16,0.576c0.624,0.384,1.11,0.906,1.458,1.566c0.349,0.66,0.522,1.41,0.522,2.25
	c0,0.804-0.174,1.548-0.522,2.231c-0.336,0.685-0.834,1.229-1.493,1.638C136.634,34.012,135.848,34.216,134.924,34.216z
	 M146.575,34.216c-1.116,0-2.082-0.271-2.898-0.81c-0.804-0.553-1.422-1.314-1.854-2.286c-0.432-0.984-0.648-2.124-0.648-3.42
	s0.217-2.431,0.648-3.402c0.432-0.983,1.05-1.746,1.854-2.286c0.816-0.552,1.782-0.828,2.898-0.828c1.115,0,2.076,0.276,2.88,0.828
	c0.804,0.54,1.422,1.303,1.854,2.286c0.432,0.972,0.647,2.106,0.647,3.402s-0.216,2.436-0.647,3.42
	c-0.433,0.972-1.051,1.733-1.854,2.286C148.651,33.945,147.69,34.216,146.575,34.216z M146.575,32.884
	c0.732,0,1.386-0.204,1.962-0.612c0.588-0.42,1.044-1.014,1.368-1.781c0.336-0.78,0.504-1.71,0.504-2.79s-0.168-2.005-0.504-2.772
	c-0.324-0.768-0.78-1.355-1.368-1.764c-0.576-0.42-1.229-0.63-1.962-0.63c-0.744,0-1.404,0.21-1.98,0.63
	c-0.576,0.408-1.031,0.996-1.367,1.764s-0.504,1.692-0.504,2.772s0.168,2.01,0.504,2.79c0.336,0.768,0.791,1.361,1.367,1.781
	C145.171,32.68,145.831,32.884,146.575,32.884z"/>
<path fill="#4D515B" d="M5.4,34.216c-1.116,0-2.082-0.271-2.898-0.81c-0.804-0.553-1.422-1.314-1.854-2.286
	C0.216,30.136,0,28.996,0,27.7s0.216-2.431,0.648-3.402c0.432-0.983,1.05-1.746,1.854-2.286c0.816-0.552,1.782-0.828,2.898-0.828
	c1.115,0,2.076,0.276,2.88,0.828c0.804,0.54,1.422,1.303,1.854,2.286c0.432,0.972,0.647,2.106,0.647,3.402s-0.216,2.436-0.647,3.42
	c-0.433,0.972-1.051,1.733-1.854,2.286C7.476,33.945,6.515,34.216,5.4,34.216z M5.4,32.884c0.732,0,1.386-0.204,1.962-0.612
	c0.588-0.42,1.044-1.014,1.368-1.781c0.336-0.78,0.504-1.71,0.504-2.79s-0.168-2.005-0.504-2.772
	c-0.324-0.768-0.78-1.355-1.368-1.764c-0.576-0.42-1.229-0.63-1.962-0.63c-0.744,0-1.404,0.21-1.98,0.63
	c-0.576,0.408-1.032,0.996-1.368,1.764S1.548,26.62,1.548,27.7s0.168,2.01,0.504,2.79c0.336,0.768,0.792,1.361,1.368,1.781
	C3.996,32.68,4.656,32.884,5.4,32.884z"/>
<path fill="#4D515B" d="M256.034,34V23.092L254,23.542v-1.044l2.538-1.098h1.025V34H256.034z M265.138,34.216
	c-1.116,0-2.082-0.271-2.898-0.81c-0.804-0.553-1.422-1.314-1.854-2.286c-0.432-0.984-0.648-2.124-0.648-3.42
	s0.217-2.431,0.648-3.402c0.432-0.983,1.05-1.746,1.854-2.286c0.816-0.552,1.782-0.828,2.898-0.828c1.115,0,2.076,0.276,2.88,0.828
	c0.804,0.54,1.422,1.303,1.854,2.286c0.432,0.972,0.647,2.106,0.647,3.402s-0.216,2.436-0.647,3.42
	c-0.433,0.972-1.051,1.733-1.854,2.286C267.214,33.945,266.253,34.216,265.138,34.216z M265.138,32.884
	c0.732,0,1.386-0.204,1.962-0.612c0.588-0.42,1.044-1.014,1.368-1.781c0.336-0.78,0.504-1.71,0.504-2.79s-0.168-2.005-0.504-2.772
	c-0.324-0.768-0.78-1.355-1.368-1.764c-0.576-0.42-1.229-0.63-1.962-0.63c-0.744,0-1.404,0.21-1.98,0.63
	c-0.576,0.408-1.031,0.996-1.367,1.764s-0.504,1.692-0.504,2.772s0.168,2.01,0.504,2.79c0.336,0.768,0.791,1.361,1.367,1.781
	C263.733,32.68,264.394,32.884,265.138,32.884z M277.618,34.216c-1.116,0-2.082-0.271-2.898-0.81
	c-0.804-0.553-1.422-1.314-1.854-2.286c-0.432-0.984-0.648-2.124-0.648-3.42s0.217-2.431,0.648-3.402
	c0.432-0.983,1.05-1.746,1.854-2.286c0.816-0.552,1.782-0.828,2.898-0.828c1.115,0,2.076,0.276,2.88,0.828
	c0.804,0.54,1.422,1.303,1.854,2.286C282.784,25.27,283,26.404,283,27.7s-0.216,2.436-0.647,3.42
	c-0.433,0.972-1.051,1.733-1.854,2.286C279.694,33.945,278.733,34.216,277.618,34.216z M277.618,32.884
	c0.732,0,1.386-0.204,1.962-0.612c0.588-0.42,1.044-1.014,1.368-1.781c0.336-0.78,0.504-1.71,0.504-2.79s-0.168-2.005-0.504-2.772
	c-0.324-0.768-0.78-1.355-1.368-1.764c-0.576-0.42-1.229-0.63-1.962-0.63c-0.744,0-1.404,0.21-1.98,0.63
	c-0.576,0.408-1.031,0.996-1.367,1.764s-0.504,1.692-0.504,2.772s0.168,2.01,0.504,2.79c0.336,0.768,0.791,1.361,1.367,1.781
	C276.214,32.68,276.874,32.884,277.618,32.884z"/>
</svg>
