<svg width="292" height="59" viewBox="0 0 292 59" fill="none" xmlns="http://www.w3.org/2000/svg">
<rect y="6.34277" width="292" height="5.42857" rx="2.71429" fill="#EDEDED"/>
<rect x="39.542" y="6.34277" width="168.812" height="5.42857" rx="2.71429" fill="#0957CB"/>
<g filter="url(#filter0_d_2_18731)">
<circle cx="42.916" cy="9.78564" r="8.5" fill="#0957CB"/>
</g>
<g filter="url(#filter1_d_2_18731)">
<ellipse cx="42.9156" cy="9.78521" rx="4.72222" ry="4.72222" fill="white"/>
</g>
<g filter="url(#filter2_d_2_18731)">
<circle cx="210.209" cy="9.78564" r="8.5" fill="#0957CB"/>
</g>
<g filter="url(#filter3_d_2_18731)">
<ellipse cx="210.209" cy="9.78521" rx="4.72222" ry="4.72222" fill="white"/>
</g>
<g filter="url(#filter4_d_2_18731)">
<path fill-rule="evenodd" clip-rule="evenodd" d="M39.7194 22.3541C34.8466 22.3541 30.8965 26.3043 30.8965 31.1771C30.8965 36.0498 34.8466 40 39.7194 40L72.1771 40C77.0498 40 81 36.0498 81 31.1771C81 26.3043 77.0498 22.3541 72.1771 22.3541L45.7265 22.3541L43.8962 19.6177C43.5002 19.0256 42.6298 19.0256 42.2338 19.6177L40.4035 22.3541L39.7194 22.3541Z" fill="#0957CB"/>
</g>
<path d="M40.138 34.7144L38.248 31.4144V30.9744H38.468C38.8213 30.9744 39.118 30.941 39.358 30.8744C39.6047 30.8077 39.798 30.6977 39.938 30.5444C40.078 30.391 40.1613 30.181 40.188 29.9144H38.248V29.2744H40.178C40.1313 29.0277 40.038 28.8277 39.898 28.6744C39.758 28.5144 39.568 28.3977 39.328 28.3244C39.0947 28.251 38.808 28.2144 38.468 28.2144H38.248V27.5744H42.388V28.2144H40.498C40.6513 28.341 40.778 28.491 40.878 28.6644C40.978 28.8377 41.0413 29.041 41.068 29.2744H42.388V29.9144H41.088C41.0413 30.401 40.8547 30.781 40.528 31.0544C40.208 31.321 39.7813 31.491 39.248 31.5644L41.158 34.7144H40.138ZM49.6002 34.7144V33.3144H46.0902V32.4744L49.4302 27.7144H50.6502V32.3944H51.6302V33.3144H50.6502V34.7144H49.6002ZM47.2402 32.3944H49.6602V28.8844L47.2402 32.3944ZM52.0107 35.8944L52.5907 33.5344H53.6407L52.7207 35.8944H52.0107ZM57.1217 34.8344C56.6283 34.8344 56.2017 34.7477 55.8417 34.5744C55.4817 34.3944 55.195 34.151 54.9817 33.8444C54.775 33.531 54.6483 33.1777 54.6017 32.7844H55.6417C55.7083 33.1177 55.875 33.3944 56.1417 33.6144C56.4083 33.8277 56.7383 33.9344 57.1317 33.9344C57.425 33.9344 57.6783 33.8644 57.8917 33.7244C58.105 33.5777 58.2717 33.3844 58.3917 33.1444C58.5117 32.9044 58.5717 32.6344 58.5717 32.3344C58.5717 31.861 58.4383 31.4844 58.1717 31.2044C57.905 30.9177 57.5683 30.7744 57.1617 30.7744C56.815 30.7744 56.5183 30.8577 56.2717 31.0244C56.025 31.1844 55.845 31.3877 55.7317 31.6344H54.7217L55.3217 27.7144H59.1017V28.6444H56.1217L55.7617 30.5144C55.915 30.341 56.125 30.1977 56.3917 30.0844C56.665 29.9644 56.9717 29.9044 57.3117 29.9044C57.785 29.9044 58.1917 30.0144 58.5317 30.2344C58.8717 30.4477 59.1317 30.7377 59.3117 31.1044C59.4983 31.471 59.5917 31.8777 59.5917 32.3244C59.5917 32.791 59.4917 33.2144 59.2917 33.5944C59.0917 33.9744 58.805 34.2777 58.4317 34.5044C58.065 34.7244 57.6283 34.8344 57.1217 34.8344ZM63.6438 34.8344C63.0105 34.8344 62.4638 34.6844 62.0038 34.3844C61.5505 34.0777 61.2005 33.6544 60.9538 33.1144C60.7138 32.5677 60.5938 31.9344 60.5938 31.2144C60.5938 30.4944 60.7138 29.8644 60.9538 29.3244C61.2005 28.7777 61.5505 28.3544 62.0038 28.0544C62.4638 27.7477 63.0105 27.5944 63.6438 27.5944C64.2771 27.5944 64.8205 27.7477 65.2738 28.0544C65.7271 28.3544 66.0738 28.7777 66.3138 29.3244C66.5605 29.8644 66.6838 30.4944 66.6838 31.2144C66.6838 31.9344 66.5605 32.5677 66.3138 33.1144C66.0738 33.6544 65.7271 34.0777 65.2738 34.3844C64.8205 34.6844 64.2771 34.8344 63.6438 34.8344ZM63.6438 33.8844C64.0238 33.8844 64.3605 33.7777 64.6538 33.5644C64.9538 33.351 65.1871 33.0444 65.3538 32.6444C65.5205 32.2444 65.6038 31.7677 65.6038 31.2144C65.6038 30.661 65.5205 30.1844 65.3538 29.7844C65.1871 29.3844 64.9538 29.0777 64.6538 28.8644C64.3605 28.651 64.0238 28.5444 63.6438 28.5444C63.2571 28.5444 62.9171 28.651 62.6238 28.8644C62.3305 29.0777 62.1005 29.3844 61.9338 29.7844C61.7671 30.1844 61.6838 30.661 61.6838 31.2144C61.6838 31.7677 61.7671 32.2444 61.9338 32.6444C62.1005 33.0444 62.3305 33.351 62.6238 33.5644C62.9171 33.7777 63.2571 33.8844 63.6438 33.8844ZM70.6653 34.8344C70.0319 34.8344 69.4853 34.6844 69.0253 34.3844C68.5719 34.0777 68.2219 33.6544 67.9753 33.1144C67.7353 32.5677 67.6153 31.9344 67.6153 31.2144C67.6153 30.4944 67.7353 29.8644 67.9753 29.3244C68.2219 28.7777 68.5719 28.3544 69.0253 28.0544C69.4853 27.7477 70.0319 27.5944 70.6653 27.5944C71.2986 27.5944 71.8419 27.7477 72.2953 28.0544C72.7486 28.3544 73.0953 28.7777 73.3353 29.3244C73.5819 29.8644 73.7053 30.4944 73.7053 31.2144C73.7053 31.9344 73.5819 32.5677 73.3353 33.1144C73.0953 33.6544 72.7486 34.0777 72.2953 34.3844C71.8419 34.6844 71.2986 34.8344 70.6653 34.8344ZM70.6653 33.8844C71.0453 33.8844 71.3819 33.7777 71.6753 33.5644C71.9753 33.351 72.2086 33.0444 72.3753 32.6444C72.5419 32.2444 72.6253 31.7677 72.6253 31.2144C72.6253 30.661 72.5419 30.1844 72.3753 29.7844C72.2086 29.3844 71.9753 29.0777 71.6753 28.8644C71.3819 28.651 71.0453 28.5444 70.6653 28.5444C70.2786 28.5444 69.9386 28.651 69.6453 28.8644C69.3519 29.0777 69.1219 29.3844 68.9553 29.7844C68.7886 30.1844 68.7053 30.661 68.7053 31.2144C68.7053 31.7677 68.7886 32.2444 68.9553 32.6444C69.1219 33.0444 69.3519 33.351 69.6453 33.5644C69.9386 33.7777 70.2786 33.8844 70.6653 33.8844Z" fill="white"/>
<g filter="url(#filter5_d_2_18731)">
<path fill-rule="evenodd" clip-rule="evenodd" d="M206.823 22.3541C201.95 22.3541 198 26.3043 198 31.1771C198 36.0498 201.95 40 206.823 40L239.281 40C244.153 40 248.104 36.0498 248.104 31.1771C248.104 26.3043 244.153 22.3541 239.281 22.3541L212.83 22.3541L211 19.6177C210.604 19.0256 209.733 19.0256 209.337 19.6177L207.507 22.3541L206.823 22.3541Z" fill="#0957CB"/>
</g>
<path d="M206.242 34.7144L204.352 31.4144V30.9744H204.572C204.925 30.9744 205.222 30.941 205.462 30.8744C205.708 30.8077 205.902 30.6977 206.042 30.5444C206.182 30.391 206.265 30.181 206.292 29.9144H204.352V29.2744H206.282C206.235 29.0277 206.142 28.8277 206.002 28.6744C205.862 28.5144 205.672 28.3977 205.432 28.3244C205.198 28.251 204.912 28.2144 204.572 28.2144H204.352V27.5744H208.492V28.2144H206.602C206.755 28.341 206.882 28.491 206.982 28.6644C207.082 28.8377 207.145 29.041 207.172 29.2744H208.492V29.9144H207.192C207.145 30.401 206.958 30.781 206.632 31.0544C206.312 31.321 205.885 31.491 205.352 31.5644L207.262 34.7144H206.242ZM213.234 34.7144V28.9144L212.104 29.1744V28.3944L213.654 27.7144H214.334V34.7144H213.234ZM218.946 34.7144V33.3144H215.436V32.4744L218.776 27.7144H219.996V32.3944H220.976V33.3144H219.996V34.7144H218.946ZM216.586 32.3944H219.006V28.8844L216.586 32.3944ZM221.356 35.8944L221.936 33.5344H222.986L222.066 35.8944H221.356ZM226.467 34.8344C225.974 34.8344 225.547 34.7477 225.187 34.5744C224.827 34.3944 224.541 34.151 224.327 33.8444C224.121 33.531 223.994 33.1777 223.947 32.7844H224.987C225.054 33.1177 225.221 33.3944 225.487 33.6144C225.754 33.8277 226.084 33.9344 226.477 33.9344C226.771 33.9344 227.024 33.8644 227.237 33.7244C227.451 33.5777 227.617 33.3844 227.737 33.1444C227.857 32.9044 227.917 32.6344 227.917 32.3344C227.917 31.861 227.784 31.4844 227.517 31.2044C227.251 30.9177 226.914 30.7744 226.507 30.7744C226.161 30.7744 225.864 30.8577 225.617 31.0244C225.371 31.1844 225.191 31.3877 225.077 31.6344H224.067L224.667 27.7144H228.447V28.6444H225.467L225.107 30.5144C225.261 30.341 225.471 30.1977 225.737 30.0844C226.011 29.9644 226.317 29.9044 226.657 29.9044C227.131 29.9044 227.537 30.0144 227.877 30.2344C228.217 30.4477 228.477 30.7377 228.657 31.1044C228.844 31.471 228.937 31.8777 228.937 32.3244C228.937 32.791 228.837 33.2144 228.637 33.5944C228.437 33.9744 228.151 34.2777 227.777 34.5044C227.411 34.7244 226.974 34.8344 226.467 34.8344ZM232.989 34.8344C232.356 34.8344 231.809 34.6844 231.349 34.3844C230.896 34.0777 230.546 33.6544 230.299 33.1144C230.059 32.5677 229.939 31.9344 229.939 31.2144C229.939 30.4944 230.059 29.8644 230.299 29.3244C230.546 28.7777 230.896 28.3544 231.349 28.0544C231.809 27.7477 232.356 27.5944 232.989 27.5944C233.623 27.5944 234.166 27.7477 234.619 28.0544C235.073 28.3544 235.419 28.7777 235.659 29.3244C235.906 29.8644 236.029 30.4944 236.029 31.2144C236.029 31.9344 235.906 32.5677 235.659 33.1144C235.419 33.6544 235.073 34.0777 234.619 34.3844C234.166 34.6844 233.623 34.8344 232.989 34.8344ZM232.989 33.8844C233.369 33.8844 233.706 33.7777 233.999 33.5644C234.299 33.351 234.533 33.0444 234.699 32.6444C234.866 32.2444 234.949 31.7677 234.949 31.2144C234.949 30.661 234.866 30.1844 234.699 29.7844C234.533 29.3844 234.299 29.0777 233.999 28.8644C233.706 28.651 233.369 28.5444 232.989 28.5444C232.603 28.5444 232.263 28.651 231.969 28.8644C231.676 29.0777 231.446 29.3844 231.279 29.7844C231.113 30.1844 231.029 30.661 231.029 31.2144C231.029 31.7677 231.113 32.2444 231.279 32.6444C231.446 33.0444 231.676 33.351 231.969 33.5644C232.263 33.7777 232.603 33.8844 232.989 33.8844ZM240.011 34.8344C239.378 34.8344 238.831 34.6844 238.371 34.3844C237.918 34.0777 237.568 33.6544 237.321 33.1144C237.081 32.5677 236.961 31.9344 236.961 31.2144C236.961 30.4944 237.081 29.8644 237.321 29.3244C237.568 28.7777 237.918 28.3544 238.371 28.0544C238.831 27.7477 239.378 27.5944 240.011 27.5944C240.644 27.5944 241.188 27.7477 241.641 28.0544C242.094 28.3544 242.441 28.7777 242.681 29.3244C242.928 29.8644 243.051 30.4944 243.051 31.2144C243.051 31.9344 242.928 32.5677 242.681 33.1144C242.441 33.6544 242.094 34.0777 241.641 34.3844C241.188 34.6844 240.644 34.8344 240.011 34.8344ZM240.011 33.8844C240.391 33.8844 240.728 33.7777 241.021 33.5644C241.321 33.351 241.554 33.0444 241.721 32.6444C241.888 32.2444 241.971 31.7677 241.971 31.2144C241.971 30.661 241.888 30.1844 241.721 29.7844C241.554 29.3844 241.321 29.0777 241.021 28.8644C240.728 28.651 240.391 28.5444 240.011 28.5444C239.624 28.5444 239.284 28.651 238.991 28.8644C238.698 29.0777 238.468 29.3844 238.301 29.7844C238.134 30.1844 238.051 30.661 238.051 31.2144C238.051 31.7677 238.134 32.2444 238.301 32.6444C238.468 33.0444 238.698 33.351 238.991 33.5644C239.284 33.7777 239.624 33.8844 240.011 33.8844Z" fill="white"/>
<defs>
<filter id="filter0_d_2_18731" x="30.416" y="0.285645" width="25" height="25" filterUnits="userSpaceOnUse" color-interpolation-filters="sRGB">
<feFlood flood-opacity="0" result="BackgroundImageFix"/>
<feColorMatrix in="SourceAlpha" type="matrix" values="0 0 0 0 0 0 0 0 0 0 0 0 0 0 0 0 0 0 127 0" result="hardAlpha"/>
<feOffset dy="3"/>
<feGaussianBlur stdDeviation="2"/>
<feColorMatrix type="matrix" values="0 0 0 0 0.0352941 0 0 0 0 0.341177 0 0 0 0 0.796078 0 0 0 0.15 0"/>
<feBlend mode="normal" in2="BackgroundImageFix" result="effect1_dropShadow_2_18731"/>
<feBlend mode="normal" in="SourceGraphic" in2="effect1_dropShadow_2_18731" result="shape"/>
</filter>
<filter id="filter1_d_2_18731" x="35.1934" y="4.06299" width="15.4443" height="15.4443" filterUnits="userSpaceOnUse" color-interpolation-filters="sRGB">
<feFlood flood-opacity="0" result="BackgroundImageFix"/>
<feColorMatrix in="SourceAlpha" type="matrix" values="0 0 0 0 0 0 0 0 0 0 0 0 0 0 0 0 0 0 127 0" result="hardAlpha"/>
<feOffset dy="2"/>
<feGaussianBlur stdDeviation="1.5"/>
<feColorMatrix type="matrix" values="0 0 0 0 0 0 0 0 0 0 0 0 0 0 0 0 0 0 0.25 0"/>
<feBlend mode="normal" in2="BackgroundImageFix" result="effect1_dropShadow_2_18731"/>
<feBlend mode="normal" in="SourceGraphic" in2="effect1_dropShadow_2_18731" result="shape"/>
</filter>
<filter id="filter2_d_2_18731" x="197.709" y="0.285645" width="25" height="25" filterUnits="userSpaceOnUse" color-interpolation-filters="sRGB">
<feFlood flood-opacity="0" result="BackgroundImageFix"/>
<feColorMatrix in="SourceAlpha" type="matrix" values="0 0 0 0 0 0 0 0 0 0 0 0 0 0 0 0 0 0 127 0" result="hardAlpha"/>
<feOffset dy="3"/>
<feGaussianBlur stdDeviation="2"/>
<feColorMatrix type="matrix" values="0 0 0 0 0.0352941 0 0 0 0 0.341177 0 0 0 0 0.796078 0 0 0 0.15 0"/>
<feBlend mode="normal" in2="BackgroundImageFix" result="effect1_dropShadow_2_18731"/>
<feBlend mode="normal" in="SourceGraphic" in2="effect1_dropShadow_2_18731" result="shape"/>
</filter>
<filter id="filter3_d_2_18731" x="202.486" y="4.06299" width="15.4443" height="15.4443" filterUnits="userSpaceOnUse" color-interpolation-filters="sRGB">
<feFlood flood-opacity="0" result="BackgroundImageFix"/>
<feColorMatrix in="SourceAlpha" type="matrix" values="0 0 0 0 0 0 0 0 0 0 0 0 0 0 0 0 0 0 127 0" result="hardAlpha"/>
<feOffset dy="2"/>
<feGaussianBlur stdDeviation="1.5"/>
<feColorMatrix type="matrix" values="0 0 0 0 0 0 0 0 0 0 0 0 0 0 0 0 0 0 0.25 0"/>
<feBlend mode="normal" in2="BackgroundImageFix" result="effect1_dropShadow_2_18731"/>
<feBlend mode="normal" in="SourceGraphic" in2="effect1_dropShadow_2_18731" result="shape"/>
</filter>
<filter id="filter4_d_2_18731" x="16.8965" y="10.1738" width="78.1035" height="48.8262" filterUnits="userSpaceOnUse" color-interpolation-filters="sRGB">
<feFlood flood-opacity="0" result="BackgroundImageFix"/>
<feColorMatrix in="SourceAlpha" type="matrix" values="0 0 0 0 0 0 0 0 0 0 0 0 0 0 0 0 0 0 127 0" result="hardAlpha"/>
<feOffset dy="5"/>
<feGaussianBlur stdDeviation="7"/>
<feColorMatrix type="matrix" values="0 0 0 0 0.0352941 0 0 0 0 0.341177 0 0 0 0 0.796078 0 0 0 0.26 0"/>
<feBlend mode="normal" in2="BackgroundImageFix" result="effect1_dropShadow_2_18731"/>
<feBlend mode="normal" in="SourceGraphic" in2="effect1_dropShadow_2_18731" result="shape"/>
</filter>
<filter id="filter5_d_2_18731" x="184" y="10.1738" width="78.1035" height="48.8262" filterUnits="userSpaceOnUse" color-interpolation-filters="sRGB">
<feFlood flood-opacity="0" result="BackgroundImageFix"/>
<feColorMatrix in="SourceAlpha" type="matrix" values="0 0 0 0 0 0 0 0 0 0 0 0 0 0 0 0 0 0 127 0" result="hardAlpha"/>
<feOffset dy="5"/>
<feGaussianBlur stdDeviation="7"/>
<feColorMatrix type="matrix" values="0 0 0 0 0.0352941 0 0 0 0 0.341177 0 0 0 0 0.796078 0 0 0 0.26 0"/>
<feBlend mode="normal" in2="BackgroundImageFix" result="effect1_dropShadow_2_18731"/>
<feBlend mode="normal" in="SourceGraphic" in2="effect1_dropShadow_2_18731" result="shape"/>
</filter>
</defs>
</svg>
