<?xml version="1.0" encoding="utf-8"?>
<!-- Generator: Adobe Illustrator 16.0.0, SVG Export Plug-In . SVG Version: 6.00 Build 0)  -->
<!DOCTYPE svg PUBLIC "-//W3C//DTD SVG 1.1//EN" "http://www.w3.org/Graphics/SVG/1.1/DTD/svg11.dtd">
<svg version="1.1" id="Layer_1" xmlns="http://www.w3.org/2000/svg" xmlns:xlink="http://www.w3.org/1999/xlink" x="0px" y="0px"
	 width="24px" height="24px" viewBox="-1 -1 24 24" enable-background="new -1 -1 24 24" xml:space="preserve">
<path d="M15.758,14.178c-0.596,0-1.145,0.209-1.576,0.559L9.85,11.603c0.073-0.398,0.073-0.806,0-1.205l4.332-3.134
	c0.432,0.349,0.98,0.558,1.576,0.558c1.385,0,2.51-1.125,2.51-2.508c0-1.384-1.125-2.509-2.51-2.509
	c-1.383,0-2.508,1.125-2.508,2.509c0,0.242,0.033,0.475,0.098,0.696L9.233,8.989C8.623,8.18,7.653,7.655,6.56,7.655
	c-1.848,0-3.345,1.497-3.345,3.345s1.497,3.346,3.345,3.346c1.094,0,2.063-0.525,2.674-1.334l4.114,2.979
	c-0.064,0.222-0.098,0.456-0.098,0.696c0,1.384,1.125,2.509,2.508,2.509c1.385,0,2.51-1.125,2.51-2.509S17.143,14.178,15.758,14.178
	z M15.758,4.227c0.601,0,1.088,0.487,1.088,1.087s-0.487,1.087-1.088,1.087c-0.6,0-1.086-0.487-1.086-1.087
	S15.158,4.227,15.758,4.227z M6.56,12.84c-1.014,0-1.839-0.826-1.839-1.84S5.546,9.161,6.56,9.161c1.014,0,1.84,0.826,1.84,1.839
	S7.574,12.84,6.56,12.84z M15.758,17.773c-0.6,0-1.086-0.486-1.086-1.087s0.486-1.087,1.086-1.087c0.601,0,1.088,0.486,1.088,1.087
	S16.358,17.773,15.758,17.773z"/>
</svg>
