<?xml version="1.0" encoding="utf-8"?>
<!-- Generator: Adobe Illustrator 16.0.0, SVG Export Plug-In . SVG Version: 6.00 Build 0)  -->
<!DOCTYPE svg PUBLIC "-//W3C//DTD SVG 1.1//EN" "http://www.w3.org/Graphics/SVG/1.1/DTD/svg11.dtd">
<svg version="1.1" id="Layer_1" xmlns="http://www.w3.org/2000/svg" xmlns:xlink="http://www.w3.org/1999/xlink" x="0px" y="0px"
	 width="24px" height="24px" viewBox="-4 -4 24 24" enable-background="new -4 -4 24 24" xml:space="preserve">
<g>
	<defs>
		<rect id="SVGID_1_" width="16" height="16"/>
	</defs>
	<clipPath id="SVGID_2_">
		<use xlink:href="#SVGID_1_"  overflow="visible"/>
	</clipPath>
	<g clip-path="url(#SVGID_2_)">
		<path fill="#606163" d="M2.97,1.35c0.094-0.11,0.21-0.198,0.341-0.258C3.443,1.031,3.585,1,3.73,1h8.54
			c0.145,0,0.287,0.031,0.419,0.092s0.247,0.148,0.341,0.258l2.609,3.044C15.872,4.666,16,5.012,16,5.37v0.255
			c0,0.495-0.154,0.978-0.442,1.38s-0.694,0.706-1.162,0.866s-0.975,0.171-1.449,0.03c-0.474-0.142-0.893-0.428-1.196-0.818
			c-0.222,0.286-0.506,0.517-0.831,0.676C10.594,7.918,10.236,8,9.875,8C9.514,8,9.156,7.918,8.831,7.759
			C8.506,7.6,8.222,7.369,8,7.083C7.778,7.369,7.494,7.6,7.169,7.759C6.844,7.918,6.487,8,6.125,8C5.763,8,5.406,7.918,5.081,7.759
			C4.756,7.6,4.472,7.369,4.25,7.083C3.946,7.474,3.528,7.76,3.054,7.901c-0.475,0.141-0.981,0.131-1.449-0.03
			S0.73,7.408,0.442,7.005S0,6.12,0,5.625V5.37c0-0.358,0.128-0.704,0.361-0.976L2.97,1.35L2.97,1.35z M4.75,5.625
			c0,0.365,0.145,0.714,0.403,0.972S5.76,7,6.125,7s0.714-0.145,0.972-0.403S7.5,5.99,7.5,5.625c0-0.133,0.053-0.26,0.146-0.354
			S7.867,5.125,8,5.125s0.26,0.053,0.354,0.146S8.5,5.492,8.5,5.625c0,0.365,0.145,0.714,0.402,0.972S9.51,7,9.875,7
			s0.715-0.145,0.973-0.403S11.25,5.99,11.25,5.625c0-0.133,0.053-0.26,0.146-0.354s0.221-0.146,0.354-0.146s0.26,0.053,0.354,0.146
			s0.146,0.221,0.146,0.354c0,0.365,0.145,0.714,0.402,0.972S13.26,7,13.625,7s0.715-0.145,0.973-0.403S15,5.99,15,5.625V5.37
			c0-0.119-0.043-0.234-0.12-0.325L12.27,2H3.73L1.12,5.045C1.042,5.136,1,5.251,1,5.37v0.255C1,5.99,1.145,6.339,1.403,6.597
			S2.01,7,2.375,7s0.714-0.145,0.972-0.403S3.75,5.99,3.75,5.625c0-0.133,0.053-0.26,0.146-0.354S4.117,5.125,4.25,5.125
			s0.26,0.053,0.354,0.146S4.75,5.492,4.75,5.625z M1.5,8.5c0.133,0,0.26,0.053,0.354,0.146S2,8.867,2,9v6h1v-5
			c0-0.266,0.105-0.52,0.293-0.707S3.735,9,4,9h3c0.265,0,0.52,0.105,0.707,0.293S8,9.734,8,10v5h6V9
			c0-0.133,0.053-0.26,0.146-0.354S14.367,8.5,14.5,8.5s0.26,0.053,0.354,0.146S15,8.867,15,9v6h0.5c0.133,0,0.26,0.053,0.354,0.146
			S16,15.367,16,15.5s-0.053,0.26-0.146,0.354S15.633,16,15.5,16h-15c-0.133,0-0.26-0.053-0.354-0.146S0,15.633,0,15.5
			s0.053-0.26,0.146-0.354S0.367,15,0.5,15H1V9c0-0.133,0.053-0.26,0.146-0.354S1.367,8.5,1.5,8.5z M4,15h3v-5H4V15z M9,10
			c0-0.266,0.105-0.52,0.293-0.707S9.734,9,10,9h2c0.266,0,0.52,0.105,0.707,0.293S13,9.734,13,10v3c0,0.266-0.105,0.52-0.293,0.707
			S12.266,14,12,14h-2c-0.266,0-0.52-0.105-0.707-0.293S9,13.266,9,13V10z M12,10h-2v3h2V10z"/>
	</g>
</g>
</svg>
