<?xml version="1.0" encoding="utf-8"?>
<!-- Generator: Adobe Illustrator 16.0.0, SVG Export Plug-In . SVG Version: 6.00 Build 0)  -->
<!DOCTYPE svg PUBLIC "-//W3C//DTD SVG 1.1//EN" "http://www.w3.org/Graphics/SVG/1.1/DTD/svg11.dtd">
<svg version="1.1" id="Layer_1" xmlns="http://www.w3.org/2000/svg" xmlns:xlink="http://www.w3.org/1999/xlink" x="0px" y="0px"
	 width="30px" height="30px" viewBox="-2.5 -4 30 30" enable-background="new -2.5 -4 30 30" xml:space="preserve">
<path d="M8.333,17c0-0.266,0.109-0.52,0.305-0.707C8.834,16.105,9.099,16,9.375,16h6.25c0.276,0,0.541,0.105,0.736,0.293
	s0.305,0.441,0.305,0.707s-0.109,0.52-0.305,0.707S15.901,18,15.625,18h-6.25c-0.276,0-0.541-0.105-0.736-0.293
	C8.443,17.52,8.333,17.266,8.333,17z M4.167,11c0-0.265,0.11-0.52,0.305-0.707S4.932,10,5.208,10h14.583
	c0.277,0,0.542,0.105,0.737,0.293s0.306,0.442,0.306,0.707s-0.11,0.52-0.306,0.707S20.068,12,19.791,12H5.208
	c-0.276,0-0.542-0.105-0.737-0.293S4.167,11.265,4.167,11z M0,5c0-0.265,0.11-0.52,0.305-0.707S0.766,4,1.042,4h22.917
	c0.275,0,0.541,0.105,0.736,0.293S25,4.735,25,5s-0.109,0.52-0.305,0.707S24.234,6,23.959,6H1.042C0.766,6,0.5,5.895,0.305,5.707
	S0,5.265,0,5z"/>
</svg>
