<?xml version="1.0" encoding="utf-8"?>
<!-- Generator: Adobe Illustrator 16.0.0, SVG Export Plug-In . SVG Version: 6.00 Build 0)  -->
<!DOCTYPE svg PUBLIC "-//W3C//DTD SVG 1.1//EN" "http://www.w3.org/Graphics/SVG/1.1/DTD/svg11.dtd">
<svg version="1.1" id="Layer_1" xmlns="http://www.w3.org/2000/svg" xmlns:xlink="http://www.w3.org/1999/xlink" x="0px" y="0px"
	 width="24px" height="24px" viewBox="-1 -1 24 24" enable-background="new -1 -1 24 24" xml:space="preserve">
<g>
	<defs>
		<rect id="SVGID_1_" width="22" height="22"/>
	</defs>
	<clipPath id="SVGID_2_">
		<use xlink:href="#SVGID_1_"  overflow="visible"/>
	</clipPath>
	<g clip-path="url(#SVGID_2_)">
		<path fill="#7D7F88" d="M20.802,0H1.207c-0.65,0-1.183,0.531-1.183,1.183v19.595c0,0.652,0.533,1.184,1.183,1.184h19.595
			c0.649,0,1.183-0.531,1.183-1.184V1.183C21.984,0.531,21.451,0,20.802,0z"/>
		<path fill="#F9FBFF" d="M15.55,5.595h-3.941c-1.149,0-2.107,0.823-2.317,1.911L8.726,9.594l-1.799,1.42
			c-0.34,0.271-0.399,0.767-0.127,1.107c0.272,0.34,0.767,0.398,1.107,0.127l2.013-1.59l-0.001-0.001
			c0.126-0.104,0.218-0.244,0.261-0.402l0.464-1.717c0.048-0.179,0.22-0.311,0.392-0.318c0.172,0.007,0.332,0.146,0.332,0.318
			v11.796c0,0.501,0.407,0.907,0.907,0.907c0.502,0,0.908-0.407,0.908-0.907v-6.961c0-0.192,0.154-0.348,0.347-0.348
			s0.347,0.155,0.347,0.348v6.961c0,0.501,0.408,0.907,0.908,0.907c0.502,0,0.907-0.407,0.907-0.907V8.541
			c0-0.175,0.144-0.318,0.318-0.318s0.317,0.143,0.317,0.318v3.952c0,0.435,0.353,0.789,0.789,0.789s0.789-0.354,0.789-0.789V7.954
			C17.91,6.651,16.853,5.595,15.55,5.595z M13.531,5.024c1.195,0,2.164-0.969,2.164-2.164c0-1.194-0.967-2.164-2.164-2.164
			c-1.195,0-2.162,0.969-2.162,2.164C11.37,4.055,12.338,5.024,13.531,5.024z"/>
		<path fill="#F9FBFF" d="M9.032,21.263H5.417c-0.213,0-0.396-0.156-0.425-0.368l-0.889-6.195c-0.034-0.236,0.129-0.453,0.365-0.486
			c0.237-0.035,0.452,0.129,0.486,0.363l0.837,5.829h2.869l0.837-5.829c0.008-0.055,0.027-0.109,0.055-0.158
			c0.029-0.049,0.067-0.091,0.112-0.125c0.045-0.033,0.097-0.059,0.151-0.072s0.112-0.017,0.167-0.008
			c0.236,0.033,0.399,0.25,0.365,0.486L9.46,20.895c-0.016,0.103-0.068,0.195-0.146,0.264C9.235,21.225,9.135,21.262,9.032,21.263z"
			/>
		<path fill="#F9FBFF" d="M8.417,15.191l-1.254,0.325c-0.121,0.031-0.25-0.005-0.337-0.093l-0.952-0.969
			c-0.189-0.193-0.1-0.518,0.162-0.585l1.254-0.325c0.121-0.03,0.25,0.006,0.337,0.094l0.952,0.969
			C8.767,14.8,8.678,15.125,8.417,15.191z"/>
	</g>
</g>
</svg>
