<?xml version="1.0" encoding="utf-8"?>
<!-- Generator: Adobe Illustrator 16.0.0, SVG Export Plug-In . SVG Version: 6.00 Build 0)  -->
<!DOCTYPE svg PUBLIC "-//W3C//DTD SVG 1.1//EN" "http://www.w3.org/Graphics/SVG/1.1/DTD/svg11.dtd">
<svg version="1.1" id="Layer_1" xmlns="http://www.w3.org/2000/svg" xmlns:xlink="http://www.w3.org/1999/xlink" x="0px" y="0px"
	 width="24px" height="24px" viewBox="0 0 24 24" enable-background="new 0 0 24 24" xml:space="preserve">
<path fill="#7D7F88" d="M9.579,1C8.29,1.008,7.269,1.932,7.214,3.183c0.009,1.218,1.01,2.161,2.365,2.208
	c1.207-0.015,2.278-0.943,2.339-2.208C11.909,1.971,10.914,1.055,9.579,1z M10.232,5.884c-0.537,0-0.989,0.167-1.358,0.504
	c-0.299,0.281-0.635,0.9-0.528,1.397H8.321l1.383,6.221c0.143,0.714,0.771,1.173,1.61,1.222c1.927-0.005,4.018-0.046,5.987-0.023
	l3.32,5.4c0.374,0.736,1.331,0.891,2.025,0.352c0.333-0.308,0.468-0.833,0.238-1.291l-3.849-6.246
	c-0.276-0.535-0.824-0.836-1.51-0.868h-4.275l-0.504-2.301h3.346c0.724,0.05,1.244-0.465,1.095-1.174
	c-0.11-0.346-0.494-0.665-0.943-0.681H12.32c-0.198-0.944-0.167-1.514-0.943-2.16C11.05,6.001,10.668,5.884,10.232,5.884z
	 M6.624,8.546C6.517,8.548,6.411,8.56,6.308,8.583c-1.482,0.539-2.815,1.463-3.849,2.748C1.548,12.53,1.039,13.973,1,15.558
	c0.015,1.878,0.879,3.806,2.428,5.259c1.5,1.335,3.584,2.14,5.824,2.184c1.633-0.009,3.266-0.458,4.754-1.35
	c1.337-0.848,2.385-2.064,3.018-3.581c0.118-0.266,0.219-0.563,0.303-0.893c0.123-0.517-0.188-0.937-0.779-1.104
	c-0.538-0.111-1.02,0.166-1.208,0.705c-0.05,0.233-0.125,0.462-0.226,0.681c-0.428,1.055-1.223,1.967-2.277,2.677
	c-1.025,0.65-2.252,1.004-3.584,1.033c-1.584-0.011-3.11-0.575-4.39-1.644c-1.1-0.995-1.788-2.418-1.824-3.968
	c0.007-1.104,0.388-2.195,1.107-3.182c0.705-0.913,1.691-1.619,2.893-2.078c0.506-0.155,0.78-0.645,0.604-1.174
	C7.471,8.743,7.071,8.541,6.624,8.546z"/>
</svg>
