<svg width="29" height="29" viewBox="0 0 29 29" fill="none" xmlns="http://www.w3.org/2000/svg">
<path d="M14.4809 4.33543C15.3373 4.33543 16.1586 4.67565 16.7642 5.28123C17.3698 5.88681 17.71 6.70816 17.71 7.56458C17.71 8.42101 17.3698 9.24235 16.7642 9.84794C16.1586 10.4535 15.3373 10.7937 14.4809 10.7937C13.6242 10.7937 12.8027 10.4534 12.197 9.84773C11.5913 9.24201 11.251 8.42048 11.251 7.56386C11.251 6.70724 11.5913 5.88571 12.197 5.27999C12.8027 4.67427 13.6242 4.33398 14.4809 4.33398V4.33543ZM14.4809 5.78543C14.009 5.78543 13.5565 5.97288 13.2228 6.30654C12.8891 6.64019 12.7017 7.09272 12.7017 7.56458C12.7017 8.03644 12.8891 8.48898 13.2228 8.82263C13.5565 9.15629 14.009 9.34373 14.4809 9.34373C14.9529 9.34373 15.4056 9.15621 15.7394 8.82242C16.0732 8.48863 16.2607 8.03591 16.2607 7.56386C16.2607 7.09181 16.0732 6.63909 15.7394 6.3053C15.4056 5.97151 14.9529 5.78398 14.4809 5.78398V5.78543Z" fill="#00286B"/>
<path d="M4.37334 16.6748C4.37334 16.8671 4.29696 17.0515 4.16099 17.1875C4.02503 17.3234 3.84062 17.3998 3.64834 17.3998C3.45606 17.3998 3.27165 17.3234 3.13569 17.1875C2.99972 17.0515 2.92334 16.8671 2.92334 16.6748V13.0701C2.92339 12.715 3.05378 12.3722 3.28978 12.1068C3.52578 11.8414 3.85098 11.6718 4.20369 11.6303L4.37334 11.6201H8.37099C8.16001 11.9842 8.03133 12.39 7.99399 12.8091L7.98239 13.0701H4.37189V16.6748H4.37334Z" fill="#00286B"/>
<path d="M25.3604 17.3998C25.5527 17.3998 25.7371 17.3234 25.8731 17.1875C26.009 17.0515 26.0854 16.8671 26.0854 16.6748V13.0701L26.0753 12.9019C26.0341 12.5489 25.8646 12.2234 25.5992 11.9871C25.3338 11.7508 24.9908 11.6202 24.6354 11.6201H20.5986C20.8103 11.987 20.9466 12.4075 20.9785 12.8541L20.9858 13.0716H24.6354V16.6748C24.6354 16.8671 24.7118 17.0515 24.8478 17.1875C24.9837 17.3234 25.1682 17.3998 25.3604 17.3998Z" fill="#00286B"/>
<path d="M18.0857 11.6201C18.4414 11.6199 18.7847 11.7503 19.0504 11.9866C19.3162 12.2229 19.4858 12.5487 19.527 12.9019L19.5357 13.0701V16.6748C19.5357 16.8671 19.4593 17.0515 19.3234 17.1875C19.1874 17.3234 19.003 17.3998 18.8107 17.3998C18.6184 17.3998 18.434 17.3234 18.2981 17.1875C18.1621 17.0515 18.0857 16.8671 18.0857 16.6748V13.0701H10.8821V16.6748C10.8821 16.8671 10.8057 17.0515 10.6698 17.1875C10.5338 17.3234 10.3494 17.3998 10.1571 17.3998C9.96485 17.3998 9.78044 17.3234 9.64448 17.1875C9.50851 17.0515 9.43213 16.8671 9.43213 16.6748V13.0701C9.43218 12.715 9.56257 12.3722 9.79857 12.1068C10.0346 11.8414 10.3598 11.6718 10.7125 11.6303L10.8821 11.6201H18.0857Z" fill="#00286B"/>
<path d="M24.4876 8.01823C24.4876 7.28236 24.1953 6.57664 23.675 6.05631C23.1546 5.53597 22.4489 5.24365 21.7131 5.24365C20.9772 5.24365 20.2715 5.53597 19.7511 6.05631C19.2308 6.57664 18.9385 7.28236 18.9385 8.01823C18.9385 8.75409 19.2308 9.45982 19.7511 9.98015C20.2715 10.5005 20.9772 10.7928 21.7131 10.7928C22.4489 10.7928 23.1546 10.5005 23.675 9.98015C24.1953 9.45982 24.4876 8.75409 24.4876 8.01823ZM20.3885 8.01823C20.3885 7.66693 20.528 7.33002 20.7764 7.08161C21.0248 6.83321 21.3618 6.69365 21.7131 6.69365C22.0644 6.69365 22.4013 6.83321 22.6497 7.08161C22.8981 7.33002 23.0376 7.66693 23.0376 8.01823C23.0376 8.36953 22.8981 8.70644 22.6497 8.95484C22.4013 9.20325 22.0644 9.3428 21.7131 9.3428C21.3618 9.3428 21.0248 9.20325 20.7764 8.95484C20.528 8.70644 20.3885 8.36953 20.3885 8.01823Z" fill="#00286B"/>
<path d="M7.27311 5.24463C8.00897 5.24463 8.7147 5.53695 9.23503 6.05728C9.75536 6.57762 10.0477 7.28334 10.0477 8.0192C10.0477 8.75507 9.75536 9.46079 9.23503 9.98112C8.7147 10.5015 8.00897 10.7938 7.27311 10.7938C6.53725 10.7938 5.83152 10.5015 5.31119 9.98112C4.79086 9.46079 4.49854 8.75507 4.49854 8.0192C4.49854 7.28334 4.79086 6.57762 5.31119 6.05728C5.83152 5.53695 6.53725 5.24463 7.27311 5.24463ZM7.27311 6.69463C6.92181 6.69463 6.5849 6.83418 6.33649 7.08259C6.08809 7.33099 5.94854 7.6679 5.94854 8.0192C5.94854 8.3705 6.08809 8.70741 6.33649 8.95582C6.5849 9.20423 6.92181 9.34378 7.27311 9.34378C7.62441 9.34378 7.96132 9.20423 8.20973 8.95582C8.45813 8.70741 8.59769 8.3705 8.59769 8.0192C8.59769 7.6679 8.45813 7.33099 8.20973 7.08259C7.96132 6.83418 7.62441 6.69463 7.27311 6.69463Z" fill="#00286B"/>
<path d="M3.6249 18.8501C3.43262 18.8501 3.24821 18.9265 3.11225 19.0624C2.97629 19.1984 2.8999 19.3828 2.8999 19.5751V21.0251C2.8999 21.9865 3.28182 22.9085 3.96164 23.5884C4.64146 24.2682 5.56349 24.6501 6.5249 24.6501H22.4749C23.4363 24.6501 24.3583 24.2682 25.0382 23.5884C25.718 22.9085 26.0999 21.9865 26.0999 21.0251V19.5751C26.0999 19.3828 26.0235 19.1984 25.8876 19.0624C25.7516 18.9265 25.5672 18.8501 25.3749 18.8501H3.6249ZM4.3499 21.0251V20.3001H24.6499V21.0251C24.6499 21.6019 24.4207 22.1552 24.0129 22.5631C23.605 22.9709 23.0517 23.2001 22.4749 23.2001H6.5249C5.94806 23.2001 5.39484 22.9709 4.98695 22.5631C4.57905 22.1552 4.3499 21.6019 4.3499 21.0251Z" fill="#00286B"/>
</svg>
