<svg width="16" height="16" viewBox="0 0 16 16" fill="none" xmlns="http://www.w3.org/2000/svg">
<path d="M13.3337 13.3331C13.3337 13.5099 13.2634 13.6795 13.1384 13.8045C13.0134 13.9295 12.8438 13.9998 12.667 13.9998H3.33366C3.15685 13.9998 2.98728 13.9295 2.86225 13.8045C2.73723 13.6795 2.66699 13.5099 2.66699 13.3331V7.33312H0.666992L7.55166 1.07445C7.6744 0.962769 7.83438 0.900879 8.00033 0.900879C8.16627 0.900879 8.32625 0.962769 8.44899 1.07445L15.3337 7.33312H13.3337V13.3331ZM8.00033 11.3331L10.2397 9.09378C10.3789 8.95449 10.4894 8.78913 10.5648 8.60715C10.6402 8.42516 10.679 8.2301 10.679 8.03312C10.679 7.83613 10.6402 7.64108 10.5648 7.45909C10.4894 7.2771 10.3789 7.11174 10.2397 6.97245C10.1004 6.83316 9.93501 6.72267 9.75302 6.64729C9.57103 6.57191 9.37598 6.53311 9.17899 6.53311C8.98201 6.53311 8.78695 6.57191 8.60496 6.64729C8.42297 6.72267 8.25761 6.83316 8.11833 6.97245L8.00033 7.09045L7.88233 6.97245C7.74304 6.83316 7.57768 6.72267 7.39569 6.64729C7.2137 6.57191 7.01864 6.53311 6.82166 6.53311C6.62467 6.53311 6.42962 6.57191 6.24763 6.64729C6.06564 6.72267 5.90028 6.83316 5.76099 6.97245C5.6217 7.11174 5.51121 7.2771 5.43583 7.45909C5.36045 7.64108 5.32165 7.83613 5.32165 8.03312C5.32165 8.2301 5.36045 8.42516 5.43583 8.60715C5.51121 8.78913 5.6217 8.95449 5.76099 9.09378L8.00033 11.3331Z" fill="#0957CB"/>
</svg>
