<svg width="29" height="29" viewBox="0 0 29 29" fill="none" xmlns="http://www.w3.org/2000/svg">
<path d="M24.1665 8.45833H19.3332V6.04167L16.9165 3.625H12.0832L9.6665 6.04167V8.45833H4.83317C3.504 8.45833 2.4165 9.54583 2.4165 10.875V16.9167C2.4165 17.8229 2.89984 18.5842 3.62484 19.0071V22.9583C3.62484 24.2996 4.70025 25.375 6.0415 25.375H22.9582C24.2994 25.375 25.3748 24.2996 25.3748 22.9583V18.995C26.0878 18.5721 26.5832 17.7988 26.5832 16.9167V10.875C26.5832 9.54583 25.4957 8.45833 24.1665 8.45833ZM12.0832 6.04167H16.9165V8.45833H12.0832V6.04167ZM4.83317 10.875H24.1665V16.9167H18.1248V13.2917H10.8748V16.9167H4.83317V10.875ZM15.7082 18.125H13.2915V15.7083H15.7082V18.125ZM22.9582 22.9583H6.0415V19.3333H10.8748V20.5417H18.1248V19.3333H22.9582V22.9583Z" fill="#00286B"/>
</svg>
