<?xml version="1.0" encoding="utf-8"?>
<!-- Generator: Adobe Illustrator 16.0.0, SVG Export Plug-In . SVG Version: 6.00 Build 0)  -->
<!DOCTYPE svg PUBLIC "-//W3C//DTD SVG 1.1//EN" "http://www.w3.org/Graphics/SVG/1.1/DTD/svg11.dtd">
<svg version="1.1" id="Layer_1" xmlns="http://www.w3.org/2000/svg" xmlns:xlink="http://www.w3.org/1999/xlink" x="0px" y="0px"
	 width="20px" height="20px" viewBox="0 0 20 20" enable-background="new 0 0 20 20" xml:space="preserve">
<path fill-opacity="0.5" d="M8.221,2c3.429,0,6.222,2.792,6.222,6.221c0,1.49-0.522,2.856-1.399,3.927L18,17.105L17.105,18
	l-4.957-4.957c-1.071,0.876-2.438,1.399-3.928,1.399C4.792,14.442,2,11.65,2,8.221S4.792,2,8.221,2z M8.221,3.244
	c-2.755,0-4.977,2.221-4.977,4.977c0,2.755,2.222,4.977,4.977,4.977c2.756,0,4.978-2.222,4.978-4.977
	C13.198,5.465,10.977,3.244,8.221,3.244z"/>
</svg>
