<svg width="329" height="270" viewBox="0 0 329 270" fill="none" xmlns="http://www.w3.org/2000/svg">
<path d="M331.4 95.5596L286.6 96.5581V269.302H331.4V95.5596Z" fill="#005DAF"/>
<path d="M332.1 270H286V95.958L332.1 94.9595V270ZM287.3 268.702H330.8V96.2575L287.3 97.1562V268.702Z" fill="#00286B"/>
<path d="M331.5 136.897H303.5V138.196H331.5V136.897Z" fill="#00286B"/>
<path d="M331.5 142.489H303.5V143.787H331.5V142.489Z" fill="#00286B"/>
<path d="M331.5 147.981H303.5V149.279H331.5V147.981Z" fill="#00286B"/>
<path d="M331.5 153.573H303.5V154.871H331.5V153.573Z" fill="#00286B"/>
<path d="M331.5 159.165H303.5V160.463H331.5V159.165Z" fill="#00286B"/>
<path d="M331.5 164.656H303.5V165.954H331.5V164.656Z" fill="#00286B"/>
<path d="M331.5 170.248H303.5V171.546H331.5V170.248Z" fill="#00286B"/>
<path d="M331.5 175.74H303.5V177.038H331.5V175.74Z" fill="#00286B"/>
<path d="M331.5 181.332H303.5V182.63H331.5V181.332Z" fill="#00286B"/>
<path d="M331.5 186.923H303.5V188.221H331.5V186.923Z" fill="#00286B"/>
<path d="M331.5 192.415H303.5V193.713H331.5V192.415Z" fill="#00286B"/>
<path d="M331.5 198.007H303.5V199.305H331.5V198.007Z" fill="#00286B"/>
<path d="M331.5 203.499H303.5V204.797H331.5V203.499Z" fill="#00286B"/>
<path d="M331.5 209.09H303.5V210.388H331.5V209.09Z" fill="#00286B"/>
<path d="M331.5 214.682H303.5V215.98H331.5V214.682Z" fill="#00286B"/>
<path d="M331.5 220.174H303.5V221.472H331.5V220.174Z" fill="#00286B"/>
<path d="M331.5 225.766H303.5V227.064H331.5V225.766Z" fill="#00286B"/>
<path d="M331.5 231.258H303.5V232.556H331.5V231.258Z" fill="#00286B"/>
<path d="M331.5 236.85H303.5V238.148H331.5V236.85Z" fill="#00286B"/>
<path d="M331.5 242.341H303.5V243.639H331.5V242.341Z" fill="#00286B"/>
<path d="M331.5 247.933H303.5V249.231H331.5V247.933Z" fill="#00286B"/>
<path d="M331.5 253.525H303.5V254.823H331.5V253.525Z" fill="#00286B"/>
<path d="M331.4 88.4692H292.4V96.2577H331.4V88.4692Z" fill="#005DAF"/>
<path d="M332.1 96.9564H291.7V87.77H332.1V96.9564ZM293.1 95.5585H330.7V89.1679H293.1V95.5585Z" fill="#00286B"/>
<path d="M359 268.702H0V270H359V268.702Z" fill="#00286B"/>
<path d="M258.6 1.19824H163.1V269.401H258.6V1.19824Z" fill="#004D8E"/>
<path d="M259.4 270.001H162.5V0.5H259.4V270.001ZM163.8 268.603H257.9V1.89792H163.8V268.603Z" fill="#00286B"/>
<path d="M232.9 28.6577H188.5V33.85H232.9V28.6577Z" fill="#47AFFF"/>
<path d="M233.6 34.5487H187.8V27.9585H233.6V34.5487ZM189.2 33.1508H232.2V29.3564H189.2V33.1508Z" fill="#00286B"/>
<path d="M232.9 44.2344H188.5V49.4267H232.9V44.2344Z" fill="#47AFFF"/>
<path d="M233.6 50.1259H187.8V43.5356H233.6V50.1259ZM189.2 48.7279H232.2V44.9336H189.2V48.7279Z" fill="#00286B"/>
<path d="M232.9 59.811H188.5V65.0034H232.9V59.811Z" fill="#47AFFF"/>
<path d="M233.6 65.7025H187.8V59.1123H233.6V65.7025ZM189.2 64.3046H232.2V60.5102H189.2V64.3046Z" fill="#00286B"/>
<path d="M232.9 75.3887H188.5V80.581H232.9V75.3887Z" fill="#47AFFF"/>
<path d="M233.6 81.2797H187.8V74.6895H233.6V81.2797ZM189.2 79.8818H232.2V76.0874H189.2V79.8818Z" fill="#00286B"/>
<path d="M232.9 90.9663H188.5V96.1586H232.9V90.9663Z" fill="#47AFFF"/>
<path d="M233.6 96.9564H187.8V90.3662H233.6V96.9564ZM189.2 95.5585H232.2V91.7641H189.2V95.5585Z" fill="#00286B"/>
<path d="M232.9 106.642H188.5V111.834H232.9V106.642Z" fill="#47AFFF"/>
<path d="M233.6 112.533H187.8V105.943H233.6V112.533ZM189.2 111.135H232.2V107.341H189.2V111.135Z" fill="#00286B"/>
<path d="M232.9 122.219H188.5V127.411H232.9V122.219Z" fill="#47AFFF"/>
<path d="M233.6 128.11H187.8V121.52H233.6V128.11ZM189.2 126.712H232.2V122.918H189.2V126.712Z" fill="#00286B"/>
<path d="M232.9 137.796H188.5V142.988H232.9V137.796Z" fill="#47AFFF"/>
<path d="M233.6 143.687H187.8V137.097H233.6V143.687ZM189.2 142.289H232.2V138.495H189.2V142.289Z" fill="#00286B"/>
<path d="M232.9 153.373H188.5V158.565H232.9V153.373Z" fill="#47AFFF"/>
<path d="M233.6 159.264H187.8V152.674H233.6V159.264ZM189.2 157.866H232.2V154.072H189.2V157.866Z" fill="#00286B"/>
<path d="M232.9 168.95H188.5V174.142H232.9V168.95Z" fill="#47AFFF"/>
<path d="M233.6 174.841H187.8V168.25H233.6V174.841ZM189.2 173.443H232.2V169.648H189.2V173.443Z" fill="#00286B"/>
<path d="M232.9 184.526H188.5V189.719H232.9V184.526Z" fill="#47AFFF"/>
<path d="M233.6 190.418H187.8V183.828H233.6V190.418ZM189.2 189.02H232.2V185.226H189.2V189.02Z" fill="#00286B"/>
<path d="M232.9 200.104H188.5V205.296H232.9V200.104Z" fill="#47AFFF"/>
<path d="M233.6 205.995H187.8V199.405H233.6V205.995ZM189.2 204.597H232.2V200.803H189.2V204.597Z" fill="#00286B"/>
<path d="M232.9 215.68H188.5V220.873H232.9V215.68Z" fill="#004D8E"/>
<path d="M233.6 221.572H187.8V214.981H233.6V221.572ZM189.2 220.174H232.2V216.379H189.2V220.174Z" fill="#00286B"/>
<path d="M232.9 231.257H188.5V236.45H232.9V231.257Z" fill="#004D8E"/>
<path d="M233.6 237.149H187.8V230.559H233.6V237.149ZM189.2 235.751H232.2V231.956H189.2V235.751Z" fill="#00286B"/>
<path d="M163.1 1.19824L138.1 14.179V269.301H163.1V1.19824Z" fill="#005DAF"/>
<path d="M163.8 270H137.3V13.6797L163.8 0V270ZM138.8 268.602H162.5V2.29658L138.8 14.5784V268.602Z" fill="#00286B"/>
<path d="M150.001 165.255L110.301 191.516V269.301H188.501V191.516L150.001 165.255Z" fill="#005DAF"/>
<path d="M189.201 270H109.601V191.117L150.001 164.456L189.201 191.117V270ZM111.001 268.602H187.801V191.815L150.001 166.054L111.001 191.815V268.602Z" fill="#00286B"/>
<path d="M64 191.516L103.3 165.255H150L110.3 191.516H64Z" fill="#004D8E"/>
<path d="M110.3 192.215H64.1002L63.7002 190.917L102.9 164.656L103.3 164.556H150L150.4 165.854L110.7 192.115L110.3 192.215ZM66.4002 190.817H110.1L147.7 165.954H103.6L66.4002 190.817Z" fill="#00286B"/>
<path d="M110.2 191.516H64V269.3H110.2V191.516Z" fill="#004D8E"/>
<path d="M111 270H63.4004V190.817H111V270ZM64.7004 268.602H109.5V192.215H64.7004V268.602Z" fill="#00286B"/>
<path d="M143 200.104H133.2V218.277H143V200.104Z" fill="#47AFFF"/>
<path d="M143 218.975H133.2L132.5 218.276V200.103L133.2 199.404H143L143.7 200.103V218.276L143 218.975ZM133.9 217.577H142.3V200.802H133.9V217.577Z" fill="#00286B"/>
<path d="M164.401 200.104H154.601V218.277H164.401V200.104Z" fill="#47AFFF"/>
<path d="M164.301 218.975H154.501L153.801 218.276V200.103L154.501 199.404H164.301L165.001 200.103V218.276L164.301 218.975ZM155.301 217.577H163.701V200.802H155.301V217.577Z" fill="#00286B"/>
<path d="M147.801 231.557C140.801 231.557 135.101 237.248 135.101 244.238V269.301H160.501V244.238C160.501 237.248 154.801 231.557 147.801 231.557Z" fill="#47AFFF"/>
<path d="M160.5 270H135.1L134.4 269.301V244.238C134.4 236.849 140.4 230.858 147.8 230.858C155.2 230.858 161.2 236.849 161.2 244.238V269.301L160.5 270ZM135.9 268.602H159.9V244.238C159.9 237.648 154.5 232.256 147.9 232.256C141.3 232.256 135.9 237.648 135.9 244.238V268.602Z" fill="#00286B"/>
<path d="M272.7 104.046L297.7 117.027V269.301H272.7V104.046Z" fill="#004D8E"/>
<path d="M298.4 270H271.9V102.848L298.4 116.527V270ZM273.4 268.602H297.1V117.426L273.4 105.144V268.602Z" fill="#00286B"/>
<path d="M272.6 104.046H214.1V269.401H272.6V104.046Z" fill="#005DAF"/>
<path d="M273.4 270.001H213.5V103.348H273.4V270.001ZM214.9 268.603H272V104.746H214.9V268.603Z" fill="#00286B"/>
<path d="M232.9 122.219H223.4V139.493H232.9V122.219Z" fill="#47AFFF"/>
<path d="M233.6 140.192H222.7V121.52H233.6V140.192ZM224.1 138.794H232.2V122.918H224.1V138.794Z" fill="#00286B"/>
<path d="M248.1 122.219H238.6V139.493H248.1V122.219Z" fill="#47AFFF"/>
<path d="M248.9 140.192H238V121.52H248.9V140.192ZM239.3 138.794H247.4V122.918H239.3V138.794Z" fill="#00286B"/>
<path d="M263.399 122.219H253.899V139.493H263.399V122.219Z" fill="#47AFFF"/>
<path d="M264.2 140.192H253.3V121.52H264.2V140.192ZM254.6 138.794H262.7V122.918H254.6V138.794Z" fill="#00286B"/>
<path d="M232.9 151.377H223.4V168.651H232.9V151.377Z" fill="#47AFFF"/>
<path d="M233.6 169.449H222.7V150.777H233.6V169.449ZM224.1 168.051H232.2V152.175H224.1V168.051Z" fill="#00286B"/>
<path d="M248.1 151.377H238.6V168.651H248.1V151.377Z" fill="#47AFFF"/>
<path d="M248.9 169.449H238V150.777H248.9V169.449ZM239.3 168.051H247.4V152.175H239.3V168.051Z" fill="#00286B"/>
<path d="M263.399 151.377H253.899V168.651H263.399V151.377Z" fill="#47AFFF"/>
<path d="M264.2 169.449H253.3V150.777H264.2V169.449ZM254.6 168.051H262.7V152.175H254.6V168.051Z" fill="#00286B"/>
<path d="M232.9 180.633H223.4V197.907H232.9V180.633Z" fill="#47AFFF"/>
<path d="M233.6 198.606H222.7V179.934H233.6V198.606ZM224.1 197.208H232.2V181.331H224.1V197.208Z" fill="#00286B"/>
<path d="M248.1 180.633H238.6V197.907H248.1V180.633Z" fill="#47AFFF"/>
<path d="M248.9 198.606H238V179.934H248.9V198.606ZM239.3 197.208H247.4V181.331H239.3V197.208Z" fill="#00286B"/>
<path d="M263.399 180.633H253.899V197.907H263.399V180.633Z" fill="#47AFFF"/>
<path d="M264.2 198.606H253.3V179.934H264.2V198.606ZM254.6 197.208H262.7V181.331H254.6V197.208Z" fill="#00286B"/>
<path d="M232.9 209.889H223.4V227.163H232.9V209.889Z" fill="#47AFFF"/>
<path d="M233.6 227.862H222.7V209.19H233.6V227.862ZM224.1 226.464H232.2V210.588H224.1V226.464Z" fill="#00286B"/>
<path d="M248.1 209.889H238.6V227.163H248.1V209.889Z" fill="#47AFFF"/>
<path d="M248.9 227.862H238V209.19H248.9V227.862ZM239.3 226.464H247.4V210.588H239.3V226.464Z" fill="#00286B"/>
<path d="M263.399 209.889H253.899V227.163H263.399V209.889Z" fill="#47AFFF"/>
<path d="M264.2 227.862H253.3V209.19H264.2V227.862ZM254.6 226.464H262.7V210.588H254.6V226.464Z" fill="#00286B"/>
<path d="M232.9 239.047H223.4V256.321H232.9V239.047Z" fill="#47AFFF"/>
<path d="M233.6 257.119H222.7V238.447H233.6V257.119ZM224.1 255.721H232.2V239.845H224.1V255.721Z" fill="#00286B"/>
<path d="M248.1 239.047H238.6V256.321H248.1V239.047Z" fill="#47AFFF"/>
<path d="M248.9 257.119H238V238.447H248.9V257.119ZM239.3 255.721H247.4V239.845H239.3V255.721Z" fill="#00286B"/>
<path d="M263.399 239.047H253.899V256.321H263.399V239.047Z" fill="#47AFFF"/>
<path d="M264.2 257.119H253.3V238.447H264.2V257.119ZM254.6 255.721H262.7V239.845H254.6V255.721Z" fill="#00286B"/>
<path d="M199.5 233.854H198.1V269.301H199.5V233.854Z" fill="#00286B"/>
<path d="M207.827 208.454C208.595 203.718 205.372 199.256 200.629 198.49C195.886 197.723 191.418 200.941 190.65 205.677C189.882 210.414 193.105 214.875 197.848 215.642C202.592 216.408 207.059 213.19 207.827 208.454Z" fill="#00286B"/>
<path d="M207.259 246.254C208.546 240.835 205.189 235.4 199.762 234.115C194.334 232.83 188.891 236.181 187.604 241.601C186.318 247.02 189.674 252.455 195.102 253.74C200.529 255.025 205.972 251.673 207.259 246.254Z" fill="#00286B"/>
<path d="M213.937 224.56C217.334 221.168 217.334 215.667 213.937 212.275C210.539 208.882 205.031 208.882 201.633 212.275C198.236 215.667 198.236 221.168 201.633 224.56C205.031 227.953 210.539 227.953 213.937 224.56Z" fill="#00286B"/>
<path d="M187.4 247.334C192.205 247.334 196.1 243.444 196.1 238.647C196.1 233.849 192.205 229.959 187.4 229.959C182.595 229.959 178.7 233.849 178.7 238.647C178.7 243.444 182.595 247.334 187.4 247.334Z" fill="#00286B"/>
<path d="M200.538 231.359C205.302 226.602 205.302 218.889 200.538 214.131C195.774 209.374 188.049 209.374 183.285 214.131C178.52 218.889 178.52 226.602 183.285 231.359C188.049 236.116 195.774 236.116 200.538 231.359Z" fill="#00286B"/>
<path d="M207.8 247.134C214.537 247.134 220 241.68 220 234.952C220 228.224 214.537 222.77 207.8 222.77C201.062 222.77 195.6 228.224 195.6 234.952C195.6 241.68 201.062 247.134 207.8 247.134Z" fill="#00286B"/>
<path d="M209.418 237.491C211.229 230.213 206.787 222.847 199.497 221.039C192.208 219.232 184.831 223.667 183.021 230.946C181.211 238.224 185.652 245.59 192.942 247.398C200.231 249.205 207.608 244.77 209.418 237.491Z" fill="#00286B"/>
<path d="M289.5 269.301H276.8C276.8 265.806 279.6 263.01 283.1 263.01C283.8 263.01 284.6 263.11 285.2 263.41C287.8 264.208 289.5 266.505 289.5 269.301Z" fill="#00286B"/>
<path d="M340.099 269.301H327.399C327.399 266.306 329.399 263.809 332.199 263.11C332.699 263.011 333.199 262.911 333.699 262.911C337.299 263.01 340.099 265.806 340.099 269.301Z" fill="#00286B"/>
<path d="M332.9 266.705C332.9 267.603 332.8 268.502 332.6 269.301H313.1C312.9 268.502 312.8 267.603 312.8 266.705C312.8 263.01 314.7 259.815 317.7 258.117C319.2 257.219 321 256.62 322.9 256.62C327.2 256.62 330.9 259.316 332.3 263.11C332.7 264.308 332.9 265.506 332.9 266.705Z" fill="#00286B"/>
<path d="M319 265.007C319 266.505 318.8 267.903 318.4 269.301H285.7C285.3 267.903 285.1 266.505 285.1 265.007C285.1 264.408 285.1 263.909 285.2 263.31C286.1 254.822 293.3 248.132 302 248.132C308.9 248.132 314.8 252.226 317.4 258.118C318.5 260.214 319 262.511 319 265.007Z" fill="#00286B"/>
<path d="M67.9998 269.301H55.2998C55.2998 265.806 58.0998 263.01 61.5998 263.01C62.2998 263.01 63.0998 263.11 63.6998 263.41C66.2998 264.208 67.9998 266.505 67.9998 269.301Z" fill="#00286B"/>
<path d="M118.7 269.301H106C106 266.306 108 263.809 110.8 263.11C111.3 263.011 111.8 262.911 112.3 262.911C115.8 263.01 118.7 265.806 118.7 269.301Z" fill="#00286B"/>
<path d="M111.4 266.705C111.4 267.603 111.3 268.502 111.1 269.301H91.5999C91.3999 268.502 91.2998 267.603 91.2998 266.705C91.2998 263.01 93.1998 259.815 96.1998 258.117C97.6998 257.219 99.4998 256.62 101.4 256.62C105.7 256.62 109.4 259.316 110.8 263.11C111.2 264.308 111.4 265.506 111.4 266.705Z" fill="#00286B"/>
<path d="M97.6002 265.007C97.6002 266.505 97.4002 267.903 97.0002 269.301H64.3002C63.9002 267.903 63.7002 266.505 63.7002 265.007C63.7002 264.408 63.7002 263.909 63.8002 263.31C64.7002 254.822 71.9002 248.132 80.6002 248.132C87.5002 248.132 93.4002 252.226 96.0002 258.118C97.0002 260.214 97.6002 262.511 97.6002 265.007Z" fill="#00286B"/>
</svg>
