<svg width="27" height="27" viewBox="0 0 27 27" fill="none" xmlns="http://www.w3.org/2000/svg">
<path d="M10.5465 13.0172C11.0111 16.1085 10.16 17.7986 7.75636 18.154C5.08536 18.549 3.98479 16.7598 3.5202 13.6685C2.8953 9.50877 4.36395 6.92162 6.45804 6.75498C8.36386 6.60364 10.0814 9.92643 10.5465 13.0172Z" stroke="#00286B" stroke-miterlimit="10"/>
<path d="M11.794 21.5962C11.9591 23.3512 11.0104 24.9892 9.57915 25.2697C8.13423 25.5524 6.48311 24.4065 6.14667 22.6757C5.81022 20.945 7.0827 20.8532 8.64206 20.5553C10.2014 20.2573 11.5947 19.4795 11.794 21.5962Z" stroke="#00286B" stroke-miterlimit="10"/>
<path d="M16.4533 7.95395C15.9887 11.0452 16.8399 12.7354 19.243 13.0908C21.9145 13.4858 23.0145 11.6965 23.4791 8.60522C24.1045 4.44501 22.6354 1.84362 20.5418 1.69174C18.6223 1.55253 16.9184 4.86266 16.4533 7.95395Z" stroke="#00286B" stroke-miterlimit="10"/>
<path d="M15.2061 16.5339C15.0411 18.2884 15.9897 19.9269 17.421 20.2074C18.8659 20.4901 20.517 19.3442 20.8534 17.6134C21.1899 15.8827 19.9174 15.7909 18.358 15.4924C16.7987 15.194 15.4054 14.4167 15.2061 16.5339V16.5339Z" stroke="#00286B" stroke-miterlimit="10"/>
</svg>
