<?xml version="1.0" encoding="utf-8"?>
<!-- Generator: Adobe Illustrator 16.0.0, SVG Export Plug-In . SVG Version: 6.00 Build 0)  -->
<!DOCTYPE svg PUBLIC "-//W3C//DTD SVG 1.1//EN" "http://www.w3.org/Graphics/SVG/1.1/DTD/svg11.dtd">
<svg version="1.1" id="Layer_1" xmlns="http://www.w3.org/2000/svg" xmlns:xlink="http://www.w3.org/1999/xlink" x="0px" y="0px"
	 width="30px" height="30px" viewBox="0 0 30 30" enable-background="new 0 0 30 30" xml:space="preserve">
<path fill="#1A1E25" d="M1.875,15c0,3.48,1.383,6.819,3.844,9.281c2.461,2.461,5.8,3.844,9.281,3.844
	c3.48,0,6.819-1.383,9.281-3.844c2.461-2.462,3.844-5.801,3.844-9.281c0-3.481-1.383-6.819-3.844-9.281
	C21.819,3.258,18.48,1.875,15,1.875c-3.481,0-6.819,1.383-9.281,3.844S1.875,11.519,1.875,15L1.875,15z M30,15
	c0,3.979-1.58,7.793-4.394,10.606S18.979,30,15,30c-3.978,0-7.793-1.58-10.606-4.394S0,18.979,0,15
	c0-3.978,1.581-7.793,4.394-10.606C7.207,1.58,11.022,0,15,0c3.979,0,7.793,1.58,10.606,4.394C28.42,7.207,30,11.022,30,15L30,15z
	 M21.563,14.063c0.248,0,0.487,0.099,0.663,0.274S22.5,14.751,22.5,15s-0.099,0.487-0.274,0.663s-0.415,0.274-0.663,0.274H10.701
	l4.025,4.023c0.087,0.088,0.157,0.191,0.204,0.305c0.047,0.114,0.071,0.236,0.071,0.359s-0.024,0.245-0.071,0.359
	c-0.047,0.113-0.116,0.217-0.204,0.305c-0.087,0.087-0.19,0.156-0.304,0.203c-0.114,0.047-0.236,0.071-0.359,0.071
	s-0.245-0.024-0.359-0.071c-0.114-0.047-0.217-0.116-0.304-0.203l-5.625-5.625c-0.087-0.088-0.157-0.191-0.204-0.305
	S7.499,15.123,7.499,15s0.024-0.246,0.071-0.359s0.117-0.217,0.204-0.305l5.625-5.625c0.176-0.176,0.415-0.275,0.664-0.275
	s0.488,0.099,0.664,0.275c0.176,0.176,0.275,0.415,0.275,0.664s-0.099,0.488-0.275,0.664l-4.025,4.023H21.563z"/>
</svg>
